<?xml version="1.0" encoding="utf-8"?><svg xmlns="http://www.w3.org/2000/svg" xmlns:xlink="http://www.w3.org/1999/xlink"><symbol viewBox="0 0 54 54" id="adaptive" xmlns="http://www.w3.org/2000/svg"><path d="M27.844 15.188h-1.688v1.687h1.688v-1.688zm-3.375 0H22.78v1.687h1.688v-1.688zm6.75 0H29.53v1.687h1.688v-1.688zM10.969 47.25H9.28v1.688h1.688V47.25zm3.375 0h-1.688v1.688h1.688V47.25zm3.375 0H16.03v1.688h1.688V47.25z"/><path d="M49.781 1.688H4.22a2.531 2.531 0 0 0-2.532 2.53v43.876a4.224 4.224 0 0 0 4.22 4.218h15.187a4.224 4.224 0 0 0 4.218-4.218v-.844h10.125v.844a4.224 4.224 0 0 0 4.22 4.218h8.437a4.224 4.224 0 0 0 4.218-4.218V4.219a2.531 2.531 0 0 0-2.53-2.532zM3.375 4.217a.844.844 0 0 1 .844-.843H49.78a.844.844 0 0 1 .844.844V26.15a4.17 4.17 0 0 0-.844-.474V4.219H4.22v14.7c-.032.013-.063.03-.094.043a21.94 21.94 0 0 0-.75.443V4.219zM42.188 27h3.374v.844h-3.374V27zM5.906 18.562V5.906h42.188v19.407h-8.438a4.226 4.226 0 0 0-4.134 3.375h-10.21V22.78a4.224 4.224 0 0 0-4.218-4.218H5.906zm10.969 1.688v.844a.844.844 0 0 1-.844.843H10.97a.844.844 0 0 1-.844-.843v-.844h6.75zm8.438 10.125h10.125v5.063H25.312v-5.063zm-1.688 17.719a2.531 2.531 0 0 1-2.531 2.531H5.906a2.531 2.531 0 0 1-2.531-2.531V22.78a2.526 2.526 0 0 1 1.916-2.453c.2-.054.408-.08.615-.078h2.532v.844a2.531 2.531 0 0 0 2.53 2.531h5.063a2.531 2.531 0 0 0 2.532-2.531v-.844h2.53a2.531 2.531 0 0 1 2.532 2.531v25.313zm1.688-2.532v-8.437h5.343l3.516 8.438h-8.86zm7.171-8.437h2.953v7.087l-2.953-7.087zm18.141 10.969a2.531 2.531 0 0 1-2.531 2.531h-8.438a2.531 2.531 0 0 1-2.531-2.531V29.53A2.531 2.531 0 0 1 39.656 27h.844v.844a1.687 1.687 0 0 0 1.688 1.687h3.374a1.687 1.687 0 0 0 1.688-1.687V27h.844c.203-.002.405.024.6.077l.03.006h.012a2.518 2.518 0 0 1 1.889 2.448v18.563z"/><path d="M44.719 47.25H43.03v1.688h1.688V47.25zm3.375 0h-1.688v1.688h1.688V47.25zm-6.75 0h-1.688v1.688h1.688V47.25z"/></symbol><symbol viewBox="0 0 148 148" id="bookmark" xmlns="http://www.w3.org/2000/svg"><g clip-path="url(#bclip0)"><path d="M136.9 148H11.1C4.98 148 0 143.019 0 136.9V11.1C0 4.98 4.98 0 11.1 0h125.8c6.119 0 11.1 4.98 11.1 11.1v125.8c0 6.119-4.981 11.1-11.1 11.1zM11.1 4.933A6.175 6.175 0 0 0 4.933 11.1v125.8a6.175 6.175 0 0 0 6.167 6.167h125.8a6.175 6.175 0 0 0 6.167-6.167V11.1a6.175 6.175 0 0 0-6.167-6.167H11.1z"/><path d="M22.2 24.666h-9.866A2.467 2.467 0 0 1 9.867 22.2v-9.866a2.468 2.468 0 0 1 2.467-2.468H22.2a2.467 2.467 0 0 1 2.466 2.468V22.2a2.466 2.466 0 0 1-2.466 2.466zm-7.4-4.933h4.933V14.8H14.8v4.933zm27.133 4.933h-9.866A2.467 2.467 0 0 1 29.6 22.2v-9.866a2.468 2.468 0 0 1 2.467-2.468h9.866a2.468 2.468 0 0 1 2.468 2.468V22.2a2.467 2.467 0 0 1-2.468 2.466zm-7.4-4.933h4.934V14.8h-4.934v4.933zm27.133 4.933H51.8a2.466 2.466 0 0 1-2.466-2.466v-9.866A2.467 2.467 0 0 1 51.8 9.866h9.866a2.468 2.468 0 0 1 2.467 2.468V22.2a2.467 2.467 0 0 1-2.467 2.466zm-7.4-4.933H59.2V14.8h-4.933v4.933z"/><path d="M145.533 34.533H2.467A2.467 2.467 0 0 1 0 32.067V11.099C0 4.981 4.98 0 11.1 0h125.8c6.119 0 11.1 4.98 11.1 11.1v20.967a2.467 2.467 0 0 1-2.467 2.466zm-140.6-4.934h138.134V11.1a6.175 6.175 0 0 0-6.167-6.166H11.1A6.175 6.175 0 0 0 4.933 11.1v18.5zM41.934 133.2c-.42 0-.842-.106-1.221-.323l-6.18-3.518-6.179 3.518a2.47 2.47 0 0 1-2.601-.101 2.471 2.471 0 0 1-1.062-2.381l1.069-7.727-5.323-5.456a2.467 2.467 0 1 1 1.393-4.163l7.22-1.102 3.25-6.928a2.465 2.465 0 0 1 4.465 0l3.252 6.928 7.22 1.102a2.472 2.472 0 0 1 1.966 1.656 2.473 2.473 0 0 1-.573 2.507l-5.322 5.456 1.068 7.727a2.471 2.471 0 0 1-2.442 2.805zm-7.4-9.146c.421 0 .84.105 1.22.323l3.052 1.737-.548-3.967a2.465 2.465 0 0 1 .679-2.06l2.814-2.883-3.776-.577a2.465 2.465 0 0 1-1.86-1.391l-1.582-3.363-1.578 3.363a2.473 2.473 0 0 1-1.86 1.391l-3.776.577 2.814 2.883c.533.546.782 1.305.678 2.06l-.547 3.967 3.05-1.737a2.43 2.43 0 0 1 1.22-.323zM81.4 133.2c-.42 0-.84-.106-1.221-.323L74 129.359l-6.179 3.518a2.472 2.472 0 0 1-2.602-.101 2.47 2.47 0 0 1-1.06-2.381l1.068-7.727-5.324-5.456a2.46 2.46 0 0 1-.572-2.507 2.466 2.466 0 0 1 1.966-1.656l7.22-1.102 3.25-6.928A2.462 2.462 0 0 1 74 103.6c.958 0 1.828.553 2.233 1.419l3.25 6.928 7.22 1.102a2.47 2.47 0 0 1 1.395 4.163l-5.324 5.456 1.068 7.727A2.47 2.47 0 0 1 81.4 133.2zm-7.4-9.146c.422 0 .841.105 1.22.323l3.053 1.737-.548-3.967a2.468 2.468 0 0 1 .678-2.06l2.815-2.883-3.777-.577a2.467 2.467 0 0 1-1.86-1.391L74 111.873l-1.58 3.363a2.475 2.475 0 0 1-1.86 1.391l-3.776.577 2.815 2.883c.533.546.781 1.305.678 2.06l-.547 3.967 3.05-1.737a2.424 2.424 0 0 1 1.22-.323z"/><path d="M120.867 133.2c-.419 0-.842-.106-1.221-.323l-6.179-3.518-6.18 3.518a2.47 2.47 0 0 1-2.601-.101 2.47 2.47 0 0 1-1.061-2.381l1.068-7.727-5.323-5.456a2.467 2.467 0 1 1 1.393-4.163l7.22-1.102 3.252-6.928a2.466 2.466 0 0 1 4.465 0l3.25 6.928 7.22 1.102a2.471 2.471 0 0 1 1.394 4.163l-5.323 5.456 1.068 7.727a2.47 2.47 0 0 1-2.442 2.805zm-7.4-9.146c.421 0 .84.105 1.221.323l3.051 1.737-.548-3.967a2.465 2.465 0 0 1 .679-2.06l2.814-2.883-3.776-.577a2.466 2.466 0 0 1-1.86-1.391l-1.581-3.363-1.579 3.363a2.473 2.473 0 0 1-1.86 1.391l-3.776.577 2.814 2.883c.533.546.782 1.305.679 2.06l-.548 3.967 3.051-1.737a2.43 2.43 0 0 1 1.219-.323zM49.334 78.933c-.55 0-1.096-.185-1.543-.54L37 69.76l-10.791 8.634a2.475 2.475 0 0 1-2.61.298 2.47 2.47 0 0 1-1.399-2.225v-44.4a2.467 2.467 0 0 1 2.466-2.467h24.668a2.467 2.467 0 0 1 2.466 2.467v44.4a2.464 2.464 0 0 1-2.466 2.466zM37 64.133c.545 0 1.09.18 1.541.54l8.326 6.661V34.533H27.134v36.801l8.325-6.66c.45-.36.996-.54 1.541-.54z"/><path d="M37 49.334a2.468 2.468 0 0 1-2.467-2.467v-14.8a2.468 2.468 0 0 1 4.934 0v14.8A2.468 2.468 0 0 1 37 49.334zm71.533 19.733h-37a2.468 2.468 0 0 1 0-4.933h37a2.468 2.468 0 0 1 0 4.933zm12.333 0H118.4a2.469 2.469 0 0 1-2.467-2.467 2.468 2.468 0 0 1 2.467-2.466h2.466a2.469 2.469 0 0 1 2.468 2.466 2.469 2.469 0 0 1-2.468 2.467zM120.866 81.4h-37a2.467 2.467 0 0 1 0-4.933h37a2.468 2.468 0 1 1 0 4.934zM74 81.4h-2.467a2.467 2.467 0 0 1 0-4.933H74a2.467 2.467 0 0 1 0 4.934zm34.533 12.333h-37a2.467 2.467 0 0 1 0-4.933h37a2.467 2.467 0 0 1 0 4.933zM120.866 93.733H118.4a2.468 2.468 0 0 1 0-4.933h2.466a2.468 2.468 0 0 1 0 4.933zm-39.466-37h-9.867a2.467 2.467 0 0 1-2.466-2.466V44.4a2.468 2.468 0 0 1 2.466-2.467h9.868a2.468 2.468 0 0 1 2.466 2.468v9.866a2.467 2.467 0 0 1-2.466 2.466zM74 51.8h4.933v-4.933H74V51.8zm46.866 4.933H111a2.467 2.467 0 0 1-2.467-2.466V44.4A2.468 2.468 0 0 1 111 41.934h9.866a2.469 2.469 0 0 1 2.468 2.468v9.866a2.468 2.468 0 0 1-2.468 2.466zm-7.399-4.933h4.933v-4.933h-4.933V51.8zm-12.333 4.933h-9.867a2.467 2.467 0 0 1-2.467-2.466V44.4a2.468 2.468 0 0 1 2.467-2.467h9.867a2.468 2.468 0 0 1 2.466 2.468v9.866a2.467 2.467 0 0 1-2.466 2.466zm-7.4-4.933h4.932v-4.933h-4.933V51.8z"/></g><defs><clipPath id="bclip0"><path d="M0 0h148v148H0z"/></clipPath></defs></symbol><symbol viewBox="0 0 54 54" id="css" xmlns="http://www.w3.org/2000/svg"><path d="M46.124 22.5c.621 0 1.125-.504 1.125-1.125v-13.5c0-3.1-2.522-5.625-5.624-5.625h-36A5.631 5.631 0 0 0 0 7.875v38.25c0 3.1 2.522 5.625 5.625 5.625h36a5.631 5.631 0 0 0 5.624-5.625v-6.75a1.125 1.125 0 0 0-2.25 0v6.75a3.38 3.38 0 0 1-3.375 3.375h-36a3.379 3.379 0 0 1-3.374-3.375V13.5H45v7.875c0 .621.504 1.125 1.124 1.125zM2.25 11.25V7.875A3.379 3.379 0 0 1 5.625 4.5h36a3.379 3.379 0 0 1 3.374 3.375v3.375H2.25z"/><path d="M5.625 9a1.125 1.125 0 1 0 0-2.25 1.125 1.125 0 0 0 0 2.25zm4.5 0a1.125 1.125 0 1 0 0-2.25 1.125 1.125 0 0 0 0 2.25zm4.5 0a1.125 1.125 0 1 0 0-2.25 1.125 1.125 0 0 0 0 2.25zM49.85 29.293l-.333-.056c-1.973-.322-2.268-.835-2.268-1.112 0-.448.898-1.125 2.252-1.125 1.332 0 2.21.632 2.253 1.087.06.62.634 1.098 1.228 1.012a1.125 1.125 0 0 0 1.013-1.226c-.171-1.782-2.102-3.125-4.494-3.125-2.524 0-4.502 1.482-4.502 3.375 0 1.761 1.397 2.882 4.158 3.332l.18-1.11.149 1.166c1.87.309 2.263.777 2.263 1.114 0 .448-.898 1.125-2.252 1.125-1.332 0-2.21-.635-2.252-1.089a1.125 1.125 0 1 0-2.241.214c.17 1.782 2.101 3.125 4.493 3.125 2.524 0 4.502-1.483 4.502-3.375 0-1.76-1.395-2.88-4.149-3.332zm-11.251 0l-.333-.056c-1.974-.322-2.268-.835-2.268-1.112 0-.448.897-1.125 2.252-1.125 1.332 0 2.21.634 2.252 1.087.06.62.628 1.098 1.229 1.012a1.126 1.126 0 0 0 1.012-1.226c-.17-1.782-2.101-3.125-4.493-3.125-2.525 0-4.502 1.482-4.502 3.375 0 1.761 1.397 2.882 4.158 3.332l.18-1.11.15 1.166c1.868.309 2.262.777 2.262 1.114 0 .448-.898 1.125-2.253 1.125-1.332 0-2.21-.635-2.252-1.089a1.126 1.126 0 1 0-2.241.214C33.923 34.657 35.854 36 38.245 36c2.525 0 4.503-1.483 4.503-3.375 0-1.76-1.395-2.88-4.15-3.332zM30.375 31.5c-.621 0-1.125.504-1.125 1.125s-.506 1.125-1.125 1.125h-2.25a1.127 1.127 0 0 1-1.125-1.125v-4.5c0-.621.506-1.125 1.125-1.125h2.25c.619 0 1.125.504 1.125 1.125a1.125 1.125 0 0 0 2.25 0 3.38 3.38 0 0 0-3.375-3.375h-2.25a3.38 3.38 0 0 0-3.375 3.375v4.5A3.379 3.379 0 0 0 25.875 36h2.25a3.379 3.379 0 0 0 3.375-3.375c0-.621-.504-1.125-1.125-1.125z"/></symbol><symbol viewBox="0 0 54 54" id="css3" xmlns="http://www.w3.org/2000/svg"><path d="M51.46.371A1.127 1.127 0 0 0 50.625 0H3.375a1.124 1.124 0 0 0-1.12 1.237l4.5 45c.042.44.342.815.762.954l20.25 6.75c.115.041.237.059.356.059.135 0 .268-.025.398-.072l18-6.75c.4-.148.682-.515.725-.94l4.5-45A1.123 1.123 0 0 0 51.46.37zm-6.388 44.946L28.1 51.682 8.92 45.288 4.614 2.25h44.764l-4.307 43.067z"/><path d="M42.484 11.653a1.128 1.128 0 0 0-.861-.4h-27a1.125 1.125 0 0 0 0 2.25h25.66L38.72 22.5H15.748a1.125 1.125 0 0 0 0 2.25h22.58l-2.204 12.675-8.024 3.008-9.128-3.044-.997-4.984a1.125 1.125 0 0 0-2.205.441l1.125 5.625c.079.396.364.718.747.846l10.125 3.375c.115.04.236.058.356.058.135 0 .267-.025.396-.07l9-3.374c.373-.142.645-.468.713-.862l4.5-25.875a1.126 1.126 0 0 0-.248-.916z"/></symbol><symbol viewBox="0 0 54 54" id="flexbox" xmlns="http://www.w3.org/2000/svg"><g clip-path="url(#eclip0)"><path d="M49.5 0h-45A4.505 4.505 0 0 0 0 4.5v45A4.505 4.505 0 0 0 4.5 54h45a4.505 4.505 0 0 0 4.5-4.5v-45A4.506 4.506 0 0 0 49.5 0zm2.7 49.5a2.7 2.7 0 0 1-2.7 2.7h-45a2.7 2.7 0 0 1-2.7-2.7V9h50.4v40.5zm0-42.3H1.8V4.5a2.7 2.7 0 0 1 2.7-2.7h45a2.7 2.7 0 0 1 2.7 2.7v2.7z"/><path d="M6.3 3.6h-.9a.9.9 0 1 0 0 1.8h.9a.9.9 0 1 0 0-1.8zm3.942.072a.824.824 0 0 0-.684 0 1.05 1.05 0 0 0-.297.189.913.913 0 0 0 0 1.278c.088.08.188.143.297.189a.848.848 0 0 0 .684 0c.11-.046.21-.11.297-.19a.913.913 0 0 0 0-1.277 1.038 1.038 0 0 0-.297-.19zm3.603-.008a.9.9 0 0 0-.984.197c-.08.088-.144.188-.19.297a.847.847 0 0 0 0 .684c.046.109.11.21.19.297a.913.913 0 0 0 1.278 0c.08-.088.143-.188.189-.297a.9.9 0 0 0-.483-1.178zM48.6 3.6H18a.9.9 0 1 0 0 1.8h30.6a.9.9 0 1 0 0-1.8zM13.817 42.858a.82.82 0 0 0 .134.1 17.919 17.919 0 0 0 26.112-.008.834.834 0 0 0 .126-.09.874.874 0 0 0 .078-.132c6.315-6.85 6.315-17.402 0-24.253l-.004-.002a.872.872 0 0 0-.077-.131.809.809 0 0 0-.134-.1 17.919 17.919 0 0 0-26.1 0 .807.807 0 0 0-.134.1.88.88 0 0 0-.078.132c-6.316 6.85-6.316 17.402 0 24.253a.9.9 0 0 0 .077.131zm18.092 3.174a16.54 16.54 0 0 0 3.065-5.67v-.002c1.13.53 2.197 1.186 3.18 1.956a16.197 16.197 0 0 1-6.245 3.716zm7.486-5.023a18.246 18.246 0 0 0-3.911-2.399c.579-2.327.895-4.712.942-7.11h6.728a16.11 16.11 0 0 1-3.759 9.509zM43.154 29.7h-6.728a32.1 32.1 0 0 0-.942-7.11 18.254 18.254 0 0 0 3.911-2.397 16.11 16.11 0 0 1 3.759 9.507zm-5-10.819c-.983.77-2.05 1.427-3.18 1.957a16.54 16.54 0 0 0-3.065-5.673c2.336.75 4.471 2.02 6.245 3.716zM27.9 14.526c2.206.578 4.157 3.23 5.386 6.985a19.112 19.112 0 0 1-5.386 1.025v-8.01zm0 9.811a20.813 20.813 0 0 0 5.882-1.08c.51 2.111.794 4.271.845 6.443H27.9v-5.363zm0 7.163h6.727a30.469 30.469 0 0 1-.845 6.441 20.815 20.815 0 0 0-5.882-1.078V31.5zm0 7.164a19.11 19.11 0 0 1 5.386 1.026c-1.23 3.755-3.18 6.407-5.386 6.985v-8.01zm-12.054 3.65a16.48 16.48 0 0 1 3.18-1.952v-.002a16.54 16.54 0 0 0 3.064 5.67 16.201 16.201 0 0 1-6.244-3.716zm10.254 4.36c-2.206-.578-4.157-3.23-5.387-6.985a19.112 19.112 0 0 1 5.387-1.025v8.01zm0-9.81a20.814 20.814 0 0 0-5.883 1.08 30.48 30.48 0 0 1-.845-6.444H26.1v5.363zm0-7.164h-6.728a30.54 30.54 0 0 1 .845-6.441c1.899.64 3.88 1.004 5.883 1.078V29.7zm0-15.175v8.011a19.11 19.11 0 0 1-5.387-1.026c1.23-3.755 3.18-6.407 5.387-6.985zm-4.01.637a16.54 16.54 0 0 0-3.064 5.676v-.003a16.472 16.472 0 0 1-3.18-1.957 16.2 16.2 0 0 1 6.244-3.716zm-7.486 5.03a18.246 18.246 0 0 0 3.911 2.398 32.089 32.089 0 0 0-.942 7.11h-6.727a16.11 16.11 0 0 1 3.758-9.508zm2.97 11.308a32.1 32.1 0 0 0 .941 7.11 18.251 18.251 0 0 0-3.911 2.397 16.11 16.11 0 0 1-3.758-9.507h6.727z"/></g><defs><clipPath id="eclip0"><path d="M0 0h54v54H0z"/></clipPath></defs></symbol><symbol viewBox="0 0 54 54" id="grid" xmlns="http://www.w3.org/2000/svg"><path d="M48.433 19.485V8.205L36.728 0H5.568v19.485H2.783v21.71h2.783V54h42.866V41.196h2.784V19.485h-2.784zM37.3 2.442l7.623 5.352H37.3V2.442zM7.237 1.67H35.63v7.794h11.134v10.02H7.237V1.67zm39.526 50.66H7.237V41.196h39.526V52.33zm2.784-12.804H4.453V21.155h45.093v18.37z"/><path d="M42.031 45.65H11.97v1.67h30.062v-1.67zm6.123-22.825h-2.226v1.67h2.227v-1.67zm0 13.36h-2.226v1.67h2.227v-1.67zm-40.082 0H5.846v1.67h2.226v-1.67zm0-13.36H5.846v1.67h2.226v-1.67zm30.619 6.68h-2.227a1.95 1.95 0 0 1-1.948-1.948 1.95 1.95 0 0 1 1.948-1.949h2.227a1.95 1.95 0 0 1 1.948 1.949h1.67a3.623 3.623 0 0 0-3.618-3.619h-2.227a3.623 3.623 0 0 0-3.618 3.619 3.623 3.623 0 0 0 3.618 3.618h2.227a1.95 1.95 0 0 1 1.948 1.949 1.95 1.95 0 0 1-1.948 1.948h-2.227a1.95 1.95 0 0 1-1.948-1.948h-1.67a3.623 3.623 0 0 0 3.618 3.618h2.227a3.623 3.623 0 0 0 3.618-3.618 3.623 3.623 0 0 0-3.618-3.619zm-11.134 0H25.33a1.95 1.95 0 0 1-1.948-1.948 1.95 1.95 0 0 1 1.948-1.949h2.227a1.95 1.95 0 0 1 1.948 1.949h1.67a3.623 3.623 0 0 0-3.618-3.619H25.33a3.623 3.623 0 0 0-3.619 3.619 3.623 3.623 0 0 0 3.619 3.618h2.227a1.95 1.95 0 0 1 1.948 1.949 1.95 1.95 0 0 1-1.948 1.948H25.33a1.95 1.95 0 0 1-1.948-1.948h-1.67a3.623 3.623 0 0 0 3.618 3.618h2.227a3.623 3.623 0 0 0 3.618-3.618 3.622 3.622 0 0 0-3.618-3.619zm-12.526 6.124a3.344 3.344 0 0 1-3.34-3.34v-3.34a3.344 3.344 0 0 1 3.34-3.34 3.344 3.344 0 0 1 3.34 3.34h1.67a5.016 5.016 0 0 0-5.01-5.01 5.016 5.016 0 0 0-5.01 5.01v3.34a5.016 5.016 0 0 0 5.01 5.01 5.016 5.016 0 0 0 5.01-5.01h-1.67a3.344 3.344 0 0 1-3.34 3.34zm-.523-27.523l-1.18-1.181-4.21 4.21 4.21 4.208 1.18-1.18-3.028-3.029 3.028-3.028zm2.611 2.471h-1.81v1.67h1.81v-1.67zm2.713 0h-1.81v1.67h1.81v-1.67zm2.714 0h-1.81v1.67h1.81v-1.67zm1.914-3.652l-1.182 1.181 3.028 3.028-3.028 3.028 1.181 1.181 4.21-4.209-4.21-4.21z"/></symbol><symbol viewBox="0 0 54 54" id="html" xmlns="http://www.w3.org/2000/svg"><path d="M48.51 8.086a1.064 1.064 0 0 0-.303-.641L41.069.309A1.064 1.064 0 0 0 40.323 0H8.647a3.166 3.166 0 0 0-3.163 3.163v27.034a1.055 1.055 0 0 0 2.111 0V3.163c0-.58.472-1.052 1.052-1.052h30.62v3.973a3.168 3.168 0 0 0 3.166 3.163h3.972v41.587c0 .582-.473 1.056-1.055 1.056H8.647c-.58 0-1.052-.474-1.052-1.056V38.622a1.055 1.055 0 0 0-2.11 0v12.212A3.168 3.168 0 0 0 8.646 54H45.35a3.17 3.17 0 0 0 3.166-3.166V8.191a1.12 1.12 0 0 0-.006-.111c0 .006.003.03 0 .006.004.035-.002-.025 0 0zm-7.132-2.002V3.602l3.535 3.534h-2.48a1.055 1.055 0 0 1-1.055-1.052z"/><path d="M41.974 20.448c0-4.076-1.672-7.77-4.363-10.431a1.064 1.064 0 0 0-.18-.177 14.615 14.615 0 0 0-10.127-4.067c-7.351 0-13.456 5.437-14.51 12.502a14.799 14.799 0 0 0-.161 2.173 14.63 14.63 0 0 0 4.31 10.378c.055.069.118.13.188.183a14.617 14.617 0 0 0 10.173 4.112c1.953 0 3.853-.38 5.648-1.128a1.055 1.055 0 0 0-.812-1.948c-1.536.64-3.163.965-4.836.965-2.355 0-4.56-.652-6.446-1.784h1.586c1.655 0 3-1.347 3-3.002a3.004 3.004 0 0 0-3-3.001.889.889 0 0 1 0-1.78h.412a3.003 3.003 0 0 0 2.998-3 3.003 3.003 0 0 0-2.998-3.002h-7.747c1.35-5.48 6.305-9.558 12.195-9.558 2.321 0 4.497.634 6.364 1.738h-1.556c-1.654 0-3 1.344-3 2.998a3.004 3.004 0 0 0 3 3.001c.482 0 .888.408.888.891a.89.89 0 0 1-.888.888H31.7a3.003 3.003 0 0 0-2.998 3.002 3.003 3.003 0 0 0 2.998 3.001h7.811a12.498 12.498 0 0 1-1.545 3.687 1.055 1.055 0 1 0 1.791 1.116 14.62 14.62 0 0 0 2.076-5.729l.004-.03c.09-.66.136-1.326.136-1.998zm-19.118-.897c.49 0 .888.4.888.891a.901.901 0 0 1-.888.892h-.412a3.003 3.003 0 0 0-2.998 3 3.001 3.001 0 0 0 2.998 2.999.892.892 0 0 1 0 1.782H18.22a12.521 12.521 0 0 1-3.443-9.564h8.08zm8.845 1.74a.89.89 0 0 1 0-1.781h.412a3.002 3.002 0 0 0 2.998-2.999 3.003 3.003 0 0 0-2.998-3.001.89.89 0 0 1 0-1.779h4.227a12.524 12.524 0 0 1 3.494 9.56h-8.133zM22.63 47.056l.002.003c.218.194.473.31.768.31.287 0 .53-.11.73-.317a1.03 1.03 0 0 0 .307-.747V40.49h1.16a.925.925 0 0 0 .681-.284.94.94 0 0 0 .288-.684.976.976 0 0 0-.284-.7.932.932 0 0 0-.685-.29h-4.441a.896.896 0 0 0-.679.293.94.94 0 0 0-.278.676c0 .272.093.51.293.702a.925.925 0 0 0 .651.275h1.17v5.827c0 .293.11.544.316.75zm-10.973-8.285c-.2.21-.32.46-.32.75v6.796c0 .296.105.55.317.756.209.204.463.308.759.308.29 0 .544-.101.747-.31a1.04 1.04 0 0 0 .302-.754v-2.541h3.405v2.54c0 .294.101.548.307.754.21.21.464.311.757.311.296 0 .55-.107.753-.323.2-.206.308-.454.308-.741v-6.795c0-.3-.102-.56-.314-.772a1.026 1.026 0 0 0-.748-.313c-.295 0-.54.122-.744.334-.203.21-.32.46-.32.75v2.309h-3.404v-2.308c0-.293-.101-.55-.308-.763a.984.984 0 0 0-.741-.322c-.299 0-.55.12-.756.334zm29.1-.021c-.21-.2-.457-.314-.747-.314s-.541.108-.748.314a1.029 1.029 0 0 0-.314.75v6.652c0 .3.111.56.317.778.206.212.458.331.757.331h3.096a.908.908 0 0 0 .386-.08c.113-.051.215-.123.302-.21a.964.964 0 0 0 .212-1.077 1.029 1.029 0 0 0-.212-.3l-.004-.004a1.008 1.008 0 0 0-.696-.274h-2.02V39.5a1.01 1.01 0 0 0-.33-.75zm-7.216.718l-1.258 4.164-1.235-4.161c-.212-.667-.66-1.035-1.362-1.035-.341 0-.643.108-.906.32a1.25 1.25 0 0 0-.475.784l-1.097 6.514a.65.65 0 0 0-.027.215c0 .3.092.568.302.783.206.218.472.317.77.317.644 0 .975-.385 1.062-1.001l.607-4.21 1.279 4.365c.17.53.52.846 1.082.846.24 0 .517-.036.711-.188.191-.156.302-.425.371-.658l1.282-4.368.616 4.213c.096.615.43 1.001 1.073 1.001.293 0 .553-.099.76-.31.211-.216.3-.488.3-.79v-.006l-.023-.197-1.1-6.526a1.278 1.278 0 0 0-.481-.79 1.363 1.363 0 0 0-.885-.314c-.708 0-1.163.36-1.366 1.032z"/><path d="M35.889 32.072c.2 0 .404-.058.584-.178l.018-.012a1.055 1.055 0 1 0-1.17-1.756l-.018.012a1.056 1.056 0 0 0 .586 1.934zM6.54 35.465c.582 0 1.055-.473 1.055-1.055v-.021a1.055 1.055 0 0 0-2.11 0v.02c0 .583.472 1.056 1.054 1.056z"/></symbol><symbol viewBox="0 0 54 54" id="html5" xmlns="http://www.w3.org/2000/svg"><path d="M13.012 27.227a2.037 2.037 0 0 0 2.015 1.843H32.87l-.484 5.398a.341.341 0 0 1-.131.156L27.537 35.9l-.56.151-.56-.15-4.709-1.272a.338.338 0 0 1-.13-.156l-.254-2.845a2.037 2.037 0 0 0-2.015-1.842h-4.025c-.529 0-1.033.22-1.384.603-.35.383-.524.905-.477 1.43l.649 7.286c.081.915.81 1.79 1.695 2.036l10.085 2.798c.755.21.989.275 1.151.275a.947.947 0 0 0 .216-.032c.034-.008.043-.01.903-.248l10.074-2.793c.772-.215 1.586-.81 1.661-1.657l1.461-16.36a1.785 1.785 0 0 0-.455-1.367 1.788 1.788 0 0 0-1.318-.576H20.39l-.333-3.726H40.83c.556 0 1.02-.424 1.07-.977l.456-4.971a1.728 1.728 0 0 0-.453-1.333 1.918 1.918 0 0 0-1.416-.608h-27.01c-.546 0-1.063.221-1.416.608-.336.367-.497.84-.453 1.333l1.403 15.721zm27.165-15.51l-.328 3.586h-20.1c-.529 0-1.033.22-1.383.603-.35.383-.525.905-.478 1.431l.371 4.15a2.037 2.037 0 0 0 2.015 1.844H39.14l-1.401 15.69a.667.667 0 0 1-.118.045L27.548 41.86l-.568.157a93.547 93.547 0 0 1-.553-.152L16.35 39.069a.351.351 0 0 1-.136-.163l-.62-6.97h3.598l.244 2.735c.082.918.815 1.791 1.704 2.032l4.717 1.273c.975.263.975.263 1.12.263.146 0 .146 0 1.121-.263l4.725-1.277c.89-.24 1.623-1.113 1.705-2.031l.513-5.714a1.876 1.876 0 0 0-.478-1.431 1.875 1.875 0 0 0-1.383-.604H15.145l-1.357-15.203h26.39z"/><path d="M50.435.604A1.876 1.876 0 0 0 49.052 0H4.948C4.42 0 3.916.22 3.566.603a1.874 1.874 0 0 0-.478 1.431l4.017 45.061c.082.915.81 1.79 1.696 2.036l17.047 4.733c.325.09.724.136 1.123.136.398 0 .797-.045 1.122-.135l17.1-4.741c.885-.246 1.614-1.12 1.696-2.036l4.024-45.053a1.876 1.876 0 0 0-.478-1.431zm-5.689 46.285a.363.363 0 0 1-.128.162l-17.1 4.74c-.27.076-.823.076-1.094 0l-17.038-4.73a.356.356 0 0 1-.138-.157L5.258 2.151h43.484L44.747 46.89z"/><path d="M20.116 3.658H8.176a1.076 1.076 0 0 0 0 2.15h11.94a1.076 1.076 0 0 0 0-2.15zm4.41 0h-.43a1.076 1.076 0 0 0 0 2.15h.43a1.076 1.076 0 0 0 0-2.15z"/></symbol><symbol viewBox="0 0 188 188" id="job" xmlns="http://www.w3.org/2000/svg"><g clip-path="url(#iclip0)"><path d="M172.327 159.88H15.673C7.03 159.88 0 152.849 0 144.207v-6.266a3.135 3.135 0 0 1 3.134-3.134H75.2c.83 0 1.63.33 2.215.918l5.348 5.348h22.474l5.348-5.348a3.126 3.126 0 0 1 2.215-.918h72.066a3.135 3.135 0 0 1 3.134 3.134v6.266c0 8.642-7.031 15.673-15.673 15.673zM6.267 141.073v3.134c0 5.185 4.22 9.407 9.406 9.407h156.654c5.185 0 9.406-4.222 9.406-9.407v-3.134h-67.635l-5.349 5.349a3.126 3.126 0 0 1-2.216.918H81.467c-.83 0-1.63-.329-2.216-.918l-5.349-5.349H6.267z"/><path d="M106.533 147.34H81.467c-.83 0-1.63-.329-2.216-.918l-5.349-5.349H21.934a3.134 3.134 0 0 1-3.134-3.132v-94a3.135 3.135 0 0 1 3.134-3.134h144.132a3.135 3.135 0 0 1 3.134 3.134v94a3.134 3.134 0 0 1-3.134 3.132h-51.968l-5.349 5.349a3.126 3.126 0 0 1-2.216.918zm-23.77-6.267h22.474l5.348-5.348a3.126 3.126 0 0 1 2.215-.918h50.134V47.073H25.066v87.734H75.2c.83 0 1.63.33 2.215.918l5.349 5.348z"/><path d="M106.533 147.34H81.467c-.83 0-1.63-.329-2.216-.918l-5.349-5.349H9.401a3.134 3.134 0 0 1-3.134-3.132V39.143c0-5.994 4.875-10.87 10.869-10.87h153.728c5.994 0 10.869 4.876 10.869 10.87v98.798a3.134 3.134 0 0 1-3.134 3.132h-64.501l-5.349 5.349a3.126 3.126 0 0 1-2.216.918zm-23.77-6.267h22.474l5.348-5.348a3.122 3.122 0 0 1 2.215-.918h62.667V39.143a4.61 4.61 0 0 0-4.603-4.603H17.136a4.609 4.609 0 0 0-4.603 4.603v95.664H75.2c.83 0 1.63.329 2.215.918l5.348 5.348z"/><path d="M81.467 106.614H37.599a3.136 3.136 0 0 1-3.132-3.134V72.147a3.135 3.135 0 0 1 3.132-3.134h43.868a3.134 3.134 0 0 1 3.132 3.134v31.333a3.135 3.135 0 0 1-3.132 3.134zm-40.734-6.267h37.6V75.279h-37.6v25.068z"/><path d="M72.067 75.28H47a3.134 3.134 0 0 1-3.134-3.133V59.613A3.135 3.135 0 0 1 47 56.48h25.067a3.135 3.135 0 0 1 3.134 3.134v12.533a3.134 3.134 0 0 1-3.134 3.132zm-21.933-6.267h18.8v-6.267h-18.8v6.267z"/><path d="M72.066 90.946H47c-6.912 0-12.533-5.62-12.533-12.533a3.135 3.135 0 0 1 3.132-3.134 3.135 3.135 0 0 1 3.134 3.134A6.273 6.273 0 0 0 47 84.68h25.066a6.273 6.273 0 0 0 6.267-6.267 3.134 3.134 0 0 1 6.267 0c0 6.912-5.622 12.533-12.534 12.533zm62.667-28.2H97.134a3.134 3.134 0 0 1 0-6.267h37.599a3.134 3.134 0 0 1 0 6.267zM150.4 62.746h-3.134a3.133 3.133 0 0 1 0-6.267h3.134a3.134 3.134 0 0 1 0 6.267zm0 15.667h-37.6a3.134 3.134 0 0 1 0-6.266h37.6a3.135 3.135 0 0 1 3.133 3.132 3.135 3.135 0 0 1-3.133 3.134zm-50.133 0h-3.133A3.135 3.135 0 0 1 94 75.28a3.135 3.135 0 0 1 3.134-3.132h3.133a3.136 3.136 0 0 1 3.134 3.132 3.136 3.136 0 0 1-3.134 3.134zm34.466 15.667H97.134a3.134 3.134 0 0 1 0-6.267h37.599a3.133 3.133 0 0 1 0 6.267zM150.4 94.08h-3.134a3.134 3.134 0 0 1 0-6.266h3.134a3.134 3.134 0 0 1 0 6.266zm-15.667 31.333H97.134A3.135 3.135 0 0 1 94 122.279a3.135 3.135 0 0 1 3.134-3.132h37.599a3.134 3.134 0 0 1 0 6.266zM150.4 125.413h-3.134a3.134 3.134 0 0 1 0-6.266h3.134a3.134 3.134 0 0 1 3.133 3.132 3.135 3.135 0 0 1-3.133 3.134zM68.934 125.413H37.599a3.135 3.135 0 0 1-3.132-3.134 3.135 3.135 0 0 1 3.132-3.132h31.335a3.134 3.134 0 0 1 0 6.266zM84.6 125.413h-3.133a3.135 3.135 0 0 1-3.134-3.134 3.135 3.135 0 0 1 3.134-3.132H84.6a3.135 3.135 0 0 1 3.134 3.132 3.135 3.135 0 0 1-3.134 3.134zm65.8-15.667h-37.6a3.133 3.133 0 0 1 0-6.267h37.6a3.134 3.134 0 0 1 0 6.267zm-50.133 0h-3.133a3.134 3.134 0 0 1 0-6.267h3.133a3.136 3.136 0 0 1 3.134 3.134 3.135 3.135 0 0 1-3.134 3.133z"/></g><defs><clipPath id="iclip0"><path d="M0 0h188v188H0z"/></clipPath></defs></symbol><symbol viewBox="0 0 54 54" id="masonry" xmlns="http://www.w3.org/2000/svg"><path d="M49.645 13.935h-4.9C42.782 5.95 35.582 0 27 0S11.217 5.95 9.256 13.935H4.355A4.36 4.36 0 0 0 0 18.29v26.13a4.36 4.36 0 0 0 4.355 4.354h11.322v3.484h-3.483V54h29.612v-1.742h-3.483v-3.484h11.322A4.36 4.36 0 0 0 54 44.42V18.29a4.36 4.36 0 0 0-4.355-4.354zM27 1.742c9.125 0 16.548 7.423 16.548 16.548 0 9.126-7.423 16.549-16.548 16.549-9.125 0-16.548-7.423-16.548-16.549 0-9.125 7.423-16.548 16.548-16.548zM4.355 15.677h4.564a18.2 18.2 0 0 0-.21 2.613c0 10.085 8.205 18.29 18.291 18.29s18.29-8.205 18.29-18.29c0-.889-.085-1.756-.209-2.613h4.564a2.616 2.616 0 0 1 2.613 2.613v23.516H1.742V18.29a2.616 2.616 0 0 1 2.613-2.613zM36.58 52.258H17.419v-3.484h19.162v3.484zm13.064-5.226H4.355a2.616 2.616 0 0 1-2.613-2.613v-.87h50.516v.87a2.616 2.616 0 0 1-2.613 2.613z"/><path d="M32.77 25.577l9.56-7.648-9.56-7.648-1.088 1.36 7.86 6.288-7.86 6.288 1.088 1.36zm-10.452-1.36l-7.86-6.288 7.86-6.287-1.088-1.36-9.56 7.647 9.56 7.648 1.088-1.36zm.774 2.503l6.166-18.142 1.65.56-6.167 18.143-1.649-.56zM3.484 38.323h8.71v1.742h-8.71v-1.742zm0-3.484h8.71v1.742h-8.71v-1.742zm0-3.484h8.71v1.742h-8.71v-1.742zm38.323 6.968h8.71v1.742h-8.71v-1.742zm0-3.484h8.71v1.742h-8.71v-1.742zm0-3.484h8.71v1.742h-8.71v-1.742z"/></symbol><symbol viewBox="0 0 54 54" id="sass" xmlns="http://www.w3.org/2000/svg"><path d="M53.1 19.8h-9.9v-8.1l-.002-.027a1.03 1.03 0 0 0-.015-.142v-.007a.902.902 0 0 0-.032-.116l-.008-.02a.873.873 0 0 0-.047-.107l-.001-.003a.896.896 0 0 0-.066-.103l-.012-.017a.902.902 0 0 0-.084-.097L32.136.264a.904.904 0 0 0-.21-.156l-.023-.011a.905.905 0 0 0-.214-.076l-.044-.008a.87.87 0 0 0-.126-.011L31.5 0H.9a.9.9 0 0 0-.9.9v52.2a.9.9 0 0 0 .9.9h41.4a.9.9 0 0 0 .9-.9v-9.9h9.9a.9.9 0 0 0 .9-.9V20.7a.9.9 0 0 0-.9-.9zM32.4 3.073l7.727 7.727H32.4V3.073zm9 49.127H1.8V1.8h28.8v9.9a.9.9 0 0 0 .9.9h9.9v7.2h-36a.9.9 0 0 0-.9.9v21.6a.9.9 0 0 0 .9.9h36v9zm10.8-10.8H6.3V21.6h45.9v19.8z"/><path d="M12.6 25.2c1.489 0 2.7 1.212 2.7 2.7a.9.9 0 0 0 1.8 0c0-2.48-2.019-4.5-4.5-4.5a4.505 4.505 0 0 0-4.5 4.5c0 2.482 2.019 4.5 4.5 4.5 1.489 0 2.7 1.212 2.7 2.7 0 1.489-1.211 2.7-2.7 2.7a2.703 2.703 0 0 1-2.7-2.7.9.9 0 0 0-1.8 0c0 2.481 2.019 4.5 4.5 4.5 2.482 0 4.5-2.018 4.5-4.5 0-2.48-2.019-4.5-4.5-4.5a2.703 2.703 0 0 1-2.7-2.7c0-1.488 1.212-2.7 2.7-2.7zm22.5 0c1.489 0 2.7 1.212 2.7 2.7a.9.9 0 0 0 1.8 0c0-2.48-2.019-4.5-4.5-4.5a4.505 4.505 0 0 0-4.5 4.5c0 2.482 2.019 4.5 4.5 4.5 1.489 0 2.7 1.212 2.7 2.7 0 1.489-1.211 2.7-2.7 2.7a2.703 2.703 0 0 1-2.7-2.7.9.9 0 0 0-1.8 0c0 2.481 2.019 4.5 4.5 4.5s4.5-2.018 4.5-4.5c0-2.48-2.019-4.5-4.5-4.5a2.703 2.703 0 0 1-2.7-2.7c0-1.488 1.212-2.7 2.7-2.7zm10.8 7.2c1.488 0 2.7 1.212 2.7 2.7 0 1.489-1.212 2.7-2.7 2.7a2.703 2.703 0 0 1-2.7-2.7.9.9 0 1 0-1.8 0c0 2.481 2.019 4.5 4.5 4.5s4.5-2.019 4.5-4.5-2.019-4.5-4.5-4.5a2.703 2.703 0 0 1-2.7-2.7c0-1.488 1.211-2.7 2.7-2.7s2.7 1.212 2.7 2.7a.9.9 0 1 0 1.8 0c0-2.481-2.019-4.5-4.5-4.5a4.505 4.505 0 0 0-4.5 4.5c0 2.482 2.019 4.5 4.5 4.5zm-21.657-8.416a.893.893 0 0 0-.868-.583.9.9 0 0 0-.835.63l-4.5 14.4a.9.9 0 0 0 1.72.538l1.49-4.77h4.9l1.806 4.817a.902.902 0 0 0 1.687-.633l-5.4-14.4zM21.812 32.4l1.665-5.33 1.999 5.33h-3.664z"/></symbol><symbol viewBox="0 0 54 54" id="verstka" xmlns="http://www.w3.org/2000/svg"><g clip-path="url(#lclip0)"><path d="M24.574 33.782h-2.785a.791.791 0 0 0 0 1.583h2.785a.791.791 0 1 0 0-1.583zm-.15 5.069a.79.79 0 1 0 0-1.582H21.79a.791.791 0 0 0 0 1.582h2.635zM4.767 2.74a2.325 2.325 0 0 0-2.322 2.32 2.324 2.324 0 0 0 2.322 2.322A2.324 2.324 0 0 0 7.09 5.061 2.325 2.325 0 0 0 4.767 2.74zm0 3.06a.74.74 0 0 1 0-1.478.74.74 0 0 1 0 1.479zm5.912-3.06a2.325 2.325 0 0 0-2.322 2.32 2.325 2.325 0 0 0 2.322 2.322A2.324 2.324 0 0 0 13 5.061a2.325 2.325 0 0 0-2.322-2.322zm0 3.06a.74.74 0 1 1 .74-.74.74.74 0 0 1-.74.74zm5.911-3.06a2.325 2.325 0 0 0-2.32 2.32 2.324 2.324 0 0 0 2.321 2.322 2.325 2.325 0 0 0 2.323-2.322 2.325 2.325 0 0 0-2.324-2.32zm0 3.06a.74.74 0 0 1 0-1.478.74.74 0 0 1 0 1.479zm-.249 20.917H7.488a2.322 2.322 0 0 0-2.32 2.32v7.862c0 1.28 1.042 2.32 2.32 2.32h8.853c1.279 0 2.32-1.04 2.32-2.32v-7.862a2.323 2.323 0 0 0-2.32-2.32zm-.48 1.583l-3.947 3.492L7.97 28.3h7.891zm-9.11 8.062v-7.026l3.97 3.513-3.97 3.513zm.948 1.274l4.216-3.73 4.215 3.73H7.7zm9.379-1.274l-3.97-3.513 3.97-3.513v7.026zm8.238-9.272h-3.527a.791.791 0 0 0 0 1.582h3.527a.79.79 0 1 0 0-1.582zm15.163 1.582h2.188a.79.79 0 1 0 0-1.582H40.48a.791.791 0 0 0 0 1.582zm-14.372 2.695a.791.791 0 0 0-.791-.791h-3.527a.791.791 0 0 0 0 1.582h3.527a.791.791 0 0 0 .79-.79zm-3.982-15.363h2.3a.79.79 0 1 0 0-1.582h-2.3a.79.79 0 1 0 0 1.582zm19.695-.791a.79.79 0 0 0-.791-.791h-14.03a.79.79 0 1 0 0 1.582h14.03a.791.791 0 0 0 .791-.791zM33.767 20.1h5.13a.791.791 0 1 0 0-1.583h-5.13a.791.791 0 0 0 0 1.583zm-4.283-1.583a.791.791 0 0 0 0 1.583h1.6a.791.791 0 1 0 0-1.583h-1.6zm-1.782.792a.791.791 0 0 0-.79-.792h-4.787a.791.791 0 1 0 0 1.583h4.786a.791.791 0 0 0 .791-.791zM7.16 16.512v-1.117c0-.379.139-.748.481-.942.128-.072.264-.106.404-.12a.78.78 0 0 0 .714-.771v-.038a.773.773 0 0 0-.774-.772h-.043c-.95.03-2.365.759-2.365 2.643v.695l-.755.508c-.37.248-.557.698-.454 1.15.062.277.24.515.475.673l.734.493v.695c0 1.884 1.414 2.613 2.365 2.644h.026a.791.791 0 0 0 .025-1.582c-.002 0-.22-.02-.42-.14-.178-.105-.414-.316-.414-.922v-1.117a.79.79 0 0 0-.35-.657l-.496-.333.496-.333a.793.793 0 0 0 .35-.657z"/><path d="M9.41 20.447a.8.8 0 0 1-.56-.231.8.8 0 0 1-.233-.56.776.776 0 0 1 .232-.56.794.794 0 0 1 1.352.56.796.796 0 0 1-.232.56.798.798 0 0 1-.56.23zm10.187-3.849l-.755-.508v-.695c0-1.884-1.414-2.614-2.365-2.643h-.044a.773.773 0 0 0-.773.772v.038c0 .404.312.73.713.77.14.015.277.048.404.121.343.194.482.563.482.942v1.117c0 .263.131.51.35.657l.496.333-.496.333a.792.792 0 0 0-.35.657v1.117c0 .606-.235.817-.413.922-.2.12-.418.14-.42.14a.79.79 0 0 0 .025 1.582h.026c.95-.03 2.365-.76 2.365-2.644v-.695l.734-.494c.235-.158.413-.395.475-.672a1.088 1.088 0 0 0-.454-1.15zm-6.817 2.619a.808.808 0 0 0-.503-.337.768.768 0 0 0-.458.046.827.827 0 0 0-.355.29.81.81 0 0 0 .098 1 .707.707 0 0 0 .257.17.79.79 0 0 0 .417.046.844.844 0 0 0 .214-.058c.333-.143.513-.522.447-.872a.769.769 0 0 0-.118-.285z"/><path d="M15.488 19.22a.806.806 0 0 0-.653-.356.798.798 0 0 0-.732.489c-.12.29-.052.64.171.863a.8.8 0 0 0 .56.23.8.8 0 0 0 .56-.23.783.783 0 0 0 .094-.997z"/><path d="M17.506 46.31H3.163c-.872 0-1.58-.709-1.58-1.58V9.78h44.623v6.934a.791.791 0 1 0 1.582 0V3.268A3.167 3.167 0 0 0 44.625.105H3.163A3.167 3.167 0 0 0 0 3.268V44.73a3.167 3.167 0 0 0 3.163 3.163h14.343a.791.791 0 1 0 0-1.583zM1.582 3.268c0-.872.71-1.58 1.58-1.58h41.463c.871 0 1.58.708 1.58 1.58v4.929H1.582V3.268z"/><path d="M52.57 42.46h-5.762l4.163-4.163a1.432 1.432 0 0 0 0-2.023l-3.183-3.183V21.655a.791.791 0 1 0-1.582 0v9.853l-1.42-1.42a1.433 1.433 0 0 0-2.024 0l-4.163 4.163V28.49c0-.79-.642-1.431-1.43-1.431H28.42c-.789 0-1.43.642-1.43 1.43V46.31h-4.526a.791.791 0 0 0 0 1.582h4.525v.158c0 1.584.396 3.047 1.497 4.233a5.62 5.62 0 0 0 4.094 1.787h12.132l.015-.001h7.842c.79 0 1.431-.641 1.431-1.43v-8.748c0-.789-.641-1.43-1.43-1.43zM28.572 28.641h8.445v6.884h-8.445V28.64zm0 8.498h7.14l-6.334 6.333c-.236.166-.457.35-.665.55h-.141v-6.883zm6.883 15.349H32.58a4.012 4.012 0 0 1-4.008-4.008v-.43a4.012 4.012 0 0 1 4.008-4.007h2.875v8.445zM33.168 42.46l-.27-.27 4.867-4.867 5.137 5.137h-9.734zM43.92 52.488h-6.883v-8.445h6.883v8.445zm-5.015-16.306l4.868-4.868 5.971 5.972-4.867 4.867-5.972-5.971zm13.512 16.306h-6.883v-8.445h6.883v8.445z"/><path d="M29.465 48.265c0 1.352 1.1 2.452 2.45 2.452 1.352 0 2.452-1.1 2.452-2.452 0-1.352-1.1-2.451-2.451-2.451a2.454 2.454 0 0 0-2.451 2.451zm3.32 0a.87.87 0 1 1-1.737-.001.87.87 0 0 1 1.737.001z"/></g><defs><clipPath id="lclip0"><path d="M0 0h54v54H0z"/></clipPath></defs></symbol></svg>