<svg width="148" height="148" fill="none" xmlns="http://www.w3.org/2000/svg"><g clip-path="url(#clip0)"><path d="M136.9 148H11.1C4.98 148 0 143.019 0 136.9V11.1C0 4.98 4.98 0 11.1 0h125.8c6.119 0 11.1 4.98 11.1 11.1v125.8c0 6.119-4.981 11.1-11.1 11.1zM11.1 4.933A6.175 6.175 0 0 0 4.933 11.1v125.8a6.175 6.175 0 0 0 6.167 6.167h125.8a6.175 6.175 0 0 0 6.167-6.167V11.1a6.175 6.175 0 0 0-6.167-6.167H11.1z" fill="#fff"/><path d="M22.2 24.666h-9.866A2.467 2.467 0 0 1 9.867 22.2v-9.866a2.468 2.468 0 0 1 2.467-2.468H22.2a2.467 2.467 0 0 1 2.466 2.468V22.2a2.466 2.466 0 0 1-2.466 2.466zm-7.4-4.933h4.933V14.8H14.8v4.933zm27.133 4.933h-9.866A2.467 2.467 0 0 1 29.6 22.2v-9.866a2.468 2.468 0 0 1 2.467-2.468h9.866a2.468 2.468 0 0 1 2.468 2.468V22.2a2.467 2.467 0 0 1-2.468 2.466zm-7.4-4.933h4.934V14.8h-4.934v4.933zm27.133 4.933H51.8a2.466 2.466 0 0 1-2.466-2.466v-9.866A2.467 2.467 0 0 1 51.8 9.866h9.866a2.468 2.468 0 0 1 2.467 2.468V22.2a2.467 2.467 0 0 1-2.467 2.466zm-7.4-4.933H59.2V14.8h-4.933v4.933z" fill="#fff"/><path d="M145.533 34.533H2.467A2.467 2.467 0 0 1 0 32.067V11.099C0 4.981 4.98 0 11.1 0h125.8c6.119 0 11.1 4.98 11.1 11.1v20.967a2.467 2.467 0 0 1-2.467 2.466zm-140.6-4.934h138.134V11.1a6.175 6.175 0 0 0-6.167-6.166H11.1A6.175 6.175 0 0 0 4.933 11.1v18.5zM41.934 133.2c-.42 0-.842-.106-1.221-.323l-6.18-3.518-6.179 3.518a2.47 2.47 0 0 1-2.601-.101 2.471 2.471 0 0 1-1.062-2.381l1.069-7.727-5.323-5.456a2.467 2.467 0 1 1 1.393-4.163l7.22-1.102 3.25-6.928a2.465 2.465 0 0 1 4.465 0l3.252 6.928 7.22 1.102a2.472 2.472 0 0 1 1.966 1.656 2.473 2.473 0 0 1-.573 2.507l-5.322 5.456 1.068 7.727a2.471 2.471 0 0 1-2.442 2.805zm-7.4-9.146c.421 0 .84.105 1.22.323l3.052 1.737-.548-3.967a2.465 2.465 0 0 1 .679-2.06l2.814-2.883-3.776-.577a2.465 2.465 0 0 1-1.86-1.391l-1.582-3.363-1.578 3.363a2.473 2.473 0 0 1-1.86 1.391l-3.776.577 2.814 2.883c.533.546.782 1.305.678 2.06l-.547 3.967 3.05-1.737a2.43 2.43 0 0 1 1.22-.323z" fill="#fff"/><path d="M81.4 133.2c-.42 0-.84-.106-1.221-.323L74 129.359l-6.179 3.518a2.472 2.472 0 0 1-2.602-.101 2.47 2.47 0 0 1-1.06-2.381l1.068-7.727-5.324-5.456a2.46 2.46 0 0 1-.572-2.507 2.466 2.466 0 0 1 1.966-1.656l7.22-1.102 3.25-6.928A2.462 2.462 0 0 1 74 103.6c.958 0 1.828.553 2.233 1.419l3.25 6.928 7.22 1.102a2.47 2.47 0 0 1 1.395 4.163l-5.324 5.456 1.068 7.727A2.47 2.47 0 0 1 81.4 133.2zm-7.4-9.146c.422 0 .841.105 1.22.323l3.053 1.737-.548-3.967a2.468 2.468 0 0 1 .678-2.06l2.815-2.883-3.777-.577a2.467 2.467 0 0 1-1.86-1.391L74 111.873l-1.58 3.363a2.475 2.475 0 0 1-1.86 1.391l-3.776.577 2.815 2.883c.533.546.781 1.305.678 2.06l-.547 3.967 3.05-1.737a2.424 2.424 0 0 1 1.22-.323z" fill="#AFEDFF"/><path d="M120.867 133.2c-.419 0-.842-.106-1.221-.323l-6.179-3.518-6.18 3.518a2.47 2.47 0 0 1-2.601-.101 2.47 2.47 0 0 1-1.061-2.381l1.068-7.727-5.323-5.456a2.467 2.467 0 1 1 1.393-4.163l7.22-1.102 3.252-6.928a2.466 2.466 0 0 1 4.465 0l3.25 6.928 7.22 1.102a2.471 2.471 0 0 1 1.394 4.163l-5.323 5.456 1.068 7.727a2.47 2.47 0 0 1-2.442 2.805zm-7.4-9.146c.421 0 .84.105 1.221.323l3.051 1.737-.548-3.967a2.465 2.465 0 0 1 .679-2.06l2.814-2.883-3.776-.577a2.466 2.466 0 0 1-1.86-1.391l-1.581-3.363-1.579 3.363a2.473 2.473 0 0 1-1.86 1.391l-3.776.577 2.814 2.883c.533.546.782 1.305.679 2.06l-.548 3.967 3.051-1.737a2.43 2.43 0 0 1 1.219-.323zM49.334 78.933c-.55 0-1.096-.185-1.543-.54L37 69.76l-10.791 8.634a2.475 2.475 0 0 1-2.61.298 2.47 2.47 0 0 1-1.399-2.225v-44.4a2.467 2.467 0 0 1 2.466-2.467h24.668a2.467 2.467 0 0 1 2.466 2.467v44.4a2.464 2.464 0 0 1-2.466 2.466zM37 64.133c.545 0 1.09.18 1.541.54l8.326 6.661V34.533H27.134v36.801l8.325-6.66c.45-.36.996-.54 1.541-.54z" fill="#fff"/><path d="M37 49.334a2.468 2.468 0 0 1-2.467-2.467v-14.8a2.468 2.468 0 0 1 4.934 0v14.8A2.468 2.468 0 0 1 37 49.334zm71.533 19.733h-37a2.468 2.468 0 0 1 0-4.933h37a2.468 2.468 0 0 1 0 4.933zm12.333 0H118.4a2.469 2.469 0 0 1-2.467-2.467 2.468 2.468 0 0 1 2.467-2.466h2.466a2.469 2.469 0 0 1 2.468 2.466 2.469 2.469 0 0 1-2.468 2.467z" fill="#fff"/><path d="M120.866 81.4h-37a2.467 2.467 0 0 1 0-4.933h37a2.468 2.468 0 1 1 0 4.934z" fill="#AFEDFF"/><path d="M74 81.4h-2.467a2.467 2.467 0 0 1 0-4.933H74a2.467 2.467 0 0 1 0 4.934zm34.533 12.333h-37a2.467 2.467 0 0 1 0-4.933h37a2.467 2.467 0 0 1 0 4.933z" fill="#fff"/><path d="M120.866 93.733H118.4a2.468 2.468 0 0 1 0-4.933h2.466a2.468 2.468 0 0 1 0 4.933zm-39.466-37h-9.867a2.467 2.467 0 0 1-2.466-2.466V44.4a2.468 2.468 0 0 1 2.466-2.467h9.868a2.468 2.468 0 0 1 2.466 2.468v9.866a2.467 2.467 0 0 1-2.466 2.466zM74 51.8h4.933v-4.933H74V51.8zm46.866 4.933H111a2.467 2.467 0 0 1-2.467-2.466V44.4A2.468 2.468 0 0 1 111 41.934h9.866a2.469 2.469 0 0 1 2.468 2.468v9.866a2.468 2.468 0 0 1-2.468 2.466zm-7.399-4.933h4.933v-4.933h-4.933V51.8zm-12.333 4.933h-9.867a2.467 2.467 0 0 1-2.467-2.466V44.4a2.468 2.468 0 0 1 2.467-2.467h9.867a2.468 2.468 0 0 1 2.466 2.468v9.866a2.467 2.467 0 0 1-2.466 2.466zm-7.4-4.933h4.932v-4.933h-4.933V51.8z" fill="#AFEDFF"/></g><defs><clipPath id="clip0"><path fill="#fff" d="M0 0h148v148H0z"/></clipPath></defs></svg>