<svg width="54" height="54" fill="none" xmlns="http://www.w3.org/2000/svg"><path d="M46.124 22.5c.621 0 1.125-.504 1.125-1.125v-13.5c0-3.1-2.522-5.625-5.624-5.625h-36A5.631 5.631 0 0 0 0 7.875v38.25c0 3.1 2.522 5.625 5.625 5.625h36a5.631 5.631 0 0 0 5.624-5.625v-6.75a1.125 1.125 0 0 0-2.25 0v6.75a3.38 3.38 0 0 1-3.375 3.375h-36a3.379 3.379 0 0 1-3.374-3.375V13.5H45v7.875c0 .621.504 1.125 1.124 1.125zM2.25 11.25V7.875A3.379 3.379 0 0 1 5.625 4.5h36a3.379 3.379 0 0 1 3.374 3.375v3.375H2.25z" fill="#fff"/><path d="M5.625 9a1.125 1.125 0 1 0 0-2.25 1.125 1.125 0 0 0 0 2.25zm4.5 0a1.125 1.125 0 1 0 0-2.25 1.125 1.125 0 0 0 0 2.25zm4.5 0a1.125 1.125 0 1 0 0-2.25 1.125 1.125 0 0 0 0 2.25zM49.85 29.293l-.333-.056c-1.973-.322-2.268-.835-2.268-1.112 0-.448.898-1.125 2.252-1.125 1.332 0 2.21.632 2.253 1.087.06.62.634 1.098 1.228 1.012a1.125 1.125 0 0 0 1.013-1.226c-.171-1.782-2.102-3.125-4.494-3.125-2.524 0-4.502 1.482-4.502 3.375 0 1.761 1.397 2.882 4.158 3.332l.18-1.11.149 1.166c1.87.309 2.263.777 2.263 1.114 0 .448-.898 1.125-2.252 1.125-1.332 0-2.21-.635-2.252-1.089a1.125 1.125 0 1 0-2.241.214c.17 1.782 2.101 3.125 4.493 3.125 2.524 0 4.502-1.483 4.502-3.375 0-1.76-1.395-2.88-4.149-3.332zm-11.251 0l-.333-.056c-1.974-.322-2.268-.835-2.268-1.112 0-.448.897-1.125 2.252-1.125 1.332 0 2.21.634 2.252 1.087.06.62.628 1.098 1.229 1.012a1.126 1.126 0 0 0 1.012-1.226c-.17-1.782-2.101-3.125-4.493-3.125-2.525 0-4.502 1.482-4.502 3.375 0 1.761 1.397 2.882 4.158 3.332l.18-1.11.15 1.166c1.868.309 2.262.777 2.262 1.114 0 .448-.898 1.125-2.253 1.125-1.332 0-2.21-.635-2.252-1.089a1.126 1.126 0 1 0-2.241.214C33.923 34.657 35.854 36 38.245 36c2.525 0 4.503-1.483 4.503-3.375 0-1.76-1.395-2.88-4.15-3.332zM30.375 31.5c-.621 0-1.125.504-1.125 1.125s-.506 1.125-1.125 1.125h-2.25a1.127 1.127 0 0 1-1.125-1.125v-4.5c0-.621.506-1.125 1.125-1.125h2.25c.619 0 1.125.504 1.125 1.125a1.125 1.125 0 0 0 2.25 0 3.38 3.38 0 0 0-3.375-3.375h-2.25a3.38 3.38 0 0 0-3.375 3.375v4.5A3.379 3.379 0 0 0 25.875 36h2.25a3.379 3.379 0 0 0 3.375-3.375c0-.621-.504-1.125-1.125-1.125z" fill="#fff"/></svg>