<svg width="54" height="54" fill="none" xmlns="http://www.w3.org/2000/svg"><path d="M51.46.371A1.127 1.127 0 0 0 50.625 0H3.375a1.124 1.124 0 0 0-1.12 1.237l4.5 45c.042.44.342.815.762.954l20.25 6.75c.115.041.237.059.356.059.135 0 .268-.025.398-.072l18-6.75c.4-.148.682-.515.725-.94l4.5-45A1.123 1.123 0 0 0 51.46.37zm-6.388 44.946L28.1 51.682 8.92 45.288 4.614 2.25h44.764l-4.307 43.067z" fill="#fff"/><path d="M42.484 11.653a1.128 1.128 0 0 0-.861-.4h-27a1.125 1.125 0 0 0 0 2.25h25.66L38.72 22.5H15.748a1.125 1.125 0 0 0 0 2.25h22.58l-2.204 12.675-8.024 3.008-9.128-3.044-.997-4.984a1.125 1.125 0 0 0-2.205.441l1.125 5.625c.079.396.364.718.747.846l10.125 3.375c.115.04.236.058.356.058.135 0 .267-.025.396-.07l9-3.374c.373-.142.645-.468.713-.862l4.5-25.875a1.126 1.126 0 0 0-.248-.916z" fill="#fff"/></svg>