<svg width="54" height="54" fill="none" xmlns="http://www.w3.org/2000/svg"><g clip-path="url(#clip0)" fill="#fff"><path d="M49.5 0h-45A4.505 4.505 0 0 0 0 4.5v45A4.505 4.505 0 0 0 4.5 54h45a4.505 4.505 0 0 0 4.5-4.5v-45A4.506 4.506 0 0 0 49.5 0zm2.7 49.5a2.7 2.7 0 0 1-2.7 2.7h-45a2.7 2.7 0 0 1-2.7-2.7V9h50.4v40.5zm0-42.3H1.8V4.5a2.7 2.7 0 0 1 2.7-2.7h45a2.7 2.7 0 0 1 2.7 2.7v2.7z"/><path d="M6.3 3.6h-.9a.9.9 0 1 0 0 1.8h.9a.9.9 0 1 0 0-1.8zm3.942.072a.824.824 0 0 0-.684 0 1.05 1.05 0 0 0-.297.189.913.913 0 0 0 0 1.278c.088.08.188.143.297.189a.848.848 0 0 0 .684 0c.11-.046.21-.11.297-.19a.913.913 0 0 0 0-1.277 1.038 1.038 0 0 0-.297-.19zm3.603-.008a.9.9 0 0 0-.984.197c-.08.088-.144.188-.19.297a.847.847 0 0 0 0 .684c.046.109.11.21.19.297a.913.913 0 0 0 1.278 0c.08-.088.143-.188.189-.297a.9.9 0 0 0-.483-1.178zM48.6 3.6H18a.9.9 0 1 0 0 1.8h30.6a.9.9 0 1 0 0-1.8zM13.817 42.858a.82.82 0 0 0 .134.1 17.919 17.919 0 0 0 26.112-.008.834.834 0 0 0 .126-.09.874.874 0 0 0 .078-.132c6.315-6.85 6.315-17.402 0-24.253l-.004-.002a.872.872 0 0 0-.077-.131.809.809 0 0 0-.134-.1 17.919 17.919 0 0 0-26.1 0 .807.807 0 0 0-.134.1.88.88 0 0 0-.078.132c-6.316 6.85-6.316 17.402 0 24.253a.9.9 0 0 0 .077.131zm18.092 3.174a16.54 16.54 0 0 0 3.065-5.67v-.002c1.13.53 2.197 1.186 3.18 1.956a16.197 16.197 0 0 1-6.245 3.716zm7.486-5.023a18.246 18.246 0 0 0-3.911-2.399c.579-2.327.895-4.712.942-7.11h6.728a16.11 16.11 0 0 1-3.759 9.509zM43.154 29.7h-6.728a32.1 32.1 0 0 0-.942-7.11 18.254 18.254 0 0 0 3.911-2.397 16.11 16.11 0 0 1 3.759 9.507zm-5-10.819c-.983.77-2.05 1.427-3.18 1.957a16.54 16.54 0 0 0-3.065-5.673c2.336.75 4.471 2.02 6.245 3.716zM27.9 14.526c2.206.578 4.157 3.23 5.386 6.985a19.112 19.112 0 0 1-5.386 1.025v-8.01zm0 9.811a20.813 20.813 0 0 0 5.882-1.08c.51 2.111.794 4.271.845 6.443H27.9v-5.363zm0 7.163h6.727a30.469 30.469 0 0 1-.845 6.441 20.815 20.815 0 0 0-5.882-1.078V31.5zm0 7.164a19.11 19.11 0 0 1 5.386 1.026c-1.23 3.755-3.18 6.407-5.386 6.985v-8.01zm-12.054 3.65a16.48 16.48 0 0 1 3.18-1.952v-.002a16.54 16.54 0 0 0 3.064 5.67 16.201 16.201 0 0 1-6.244-3.716zm10.254 4.36c-2.206-.578-4.157-3.23-5.387-6.985a19.112 19.112 0 0 1 5.387-1.025v8.01zm0-9.81a20.814 20.814 0 0 0-5.883 1.08 30.48 30.48 0 0 1-.845-6.444H26.1v5.363zm0-7.164h-6.728a30.54 30.54 0 0 1 .845-6.441c1.899.64 3.88 1.004 5.883 1.078V29.7zm0-15.175v8.011a19.11 19.11 0 0 1-5.387-1.026c1.23-3.755 3.18-6.407 5.387-6.985zm-4.01.637a16.54 16.54 0 0 0-3.064 5.676v-.003a16.472 16.472 0 0 1-3.18-1.957 16.2 16.2 0 0 1 6.244-3.716zm-7.486 5.03a18.246 18.246 0 0 0 3.911 2.398 32.089 32.089 0 0 0-.942 7.11h-6.727a16.11 16.11 0 0 1 3.758-9.508zm2.97 11.308a32.1 32.1 0 0 0 .941 7.11 18.251 18.251 0 0 0-3.911 2.397 16.11 16.11 0 0 1-3.758-9.507h6.727z"/></g><defs><clipPath id="clip0"><path fill="#fff" d="M0 0h54v54H0z"/></clipPath></defs></svg>