<svg width="54" height="54" fill="none" xmlns="http://www.w3.org/2000/svg"><path d="M48.433 19.485V8.205L36.728 0H5.568v19.485H2.783v21.71h2.783V54h42.866V41.196h2.784V19.485h-2.784zM37.3 2.442l7.623 5.352H37.3V2.442zM7.237 1.67H35.63v7.794h11.134v10.02H7.237V1.67zm39.526 50.66H7.237V41.196h39.526V52.33zm2.784-12.804H4.453V21.155h45.093v18.37z" fill="#fff"/><path d="M42.031 45.65H11.97v1.67h30.062v-1.67zm6.123-22.825h-2.226v1.67h2.227v-1.67zm0 13.36h-2.226v1.67h2.227v-1.67zm-40.082 0H5.846v1.67h2.226v-1.67zm0-13.36H5.846v1.67h2.226v-1.67zm30.619 6.68h-2.227a1.95 1.95 0 0 1-1.948-1.948 1.95 1.95 0 0 1 1.948-1.949h2.227a1.95 1.95 0 0 1 1.948 1.949h1.67a3.623 3.623 0 0 0-3.618-3.619h-2.227a3.623 3.623 0 0 0-3.618 3.619 3.623 3.623 0 0 0 3.618 3.618h2.227a1.95 1.95 0 0 1 1.948 1.949 1.95 1.95 0 0 1-1.948 1.948h-2.227a1.95 1.95 0 0 1-1.948-1.948h-1.67a3.623 3.623 0 0 0 3.618 3.618h2.227a3.623 3.623 0 0 0 3.618-3.618 3.623 3.623 0 0 0-3.618-3.619zm-11.134 0H25.33a1.95 1.95 0 0 1-1.948-1.948 1.95 1.95 0 0 1 1.948-1.949h2.227a1.95 1.95 0 0 1 1.948 1.949h1.67a3.623 3.623 0 0 0-3.618-3.619H25.33a3.623 3.623 0 0 0-3.619 3.619 3.623 3.623 0 0 0 3.619 3.618h2.227a1.95 1.95 0 0 1 1.948 1.949 1.95 1.95 0 0 1-1.948 1.948H25.33a1.95 1.95 0 0 1-1.948-1.948h-1.67a3.623 3.623 0 0 0 3.618 3.618h2.227a3.623 3.623 0 0 0 3.618-3.618 3.622 3.622 0 0 0-3.618-3.619zm-12.526 6.124a3.344 3.344 0 0 1-3.34-3.34v-3.34a3.344 3.344 0 0 1 3.34-3.34 3.344 3.344 0 0 1 3.34 3.34h1.67a5.016 5.016 0 0 0-5.01-5.01 5.016 5.016 0 0 0-5.01 5.01v3.34a5.016 5.016 0 0 0 5.01 5.01 5.016 5.016 0 0 0 5.01-5.01h-1.67a3.344 3.344 0 0 1-3.34 3.34zm-.523-27.523l-1.18-1.181-4.21 4.21 4.21 4.208 1.18-1.18-3.028-3.029 3.028-3.028zm2.611 2.471h-1.81v1.67h1.81v-1.67zm2.713 0h-1.81v1.67h1.81v-1.67zm2.714 0h-1.81v1.67h1.81v-1.67zm1.914-3.652l-1.182 1.181 3.028 3.028-3.028 3.028 1.181 1.181 4.21-4.209-4.21-4.21z" fill="#fff"/></svg>