<svg width="54" height="54" fill="none" xmlns="http://www.w3.org/2000/svg"><path d="M48.51 8.086a1.064 1.064 0 0 0-.303-.641L41.069.309A1.064 1.064 0 0 0 40.323 0H8.647a3.166 3.166 0 0 0-3.163 3.163v27.034a1.055 1.055 0 0 0 2.111 0V3.163c0-.58.472-1.052 1.052-1.052h30.62v3.973a3.168 3.168 0 0 0 3.166 3.163h3.972v41.587c0 .582-.473 1.056-1.055 1.056H8.647c-.58 0-1.052-.474-1.052-1.056V38.622a1.055 1.055 0 0 0-2.11 0v12.212A3.168 3.168 0 0 0 8.646 54H45.35a3.17 3.17 0 0 0 3.166-3.166V8.191a1.12 1.12 0 0 0-.006-.111c0 .006.003.03 0 .006.004.035-.002-.025 0 0zm-7.132-2.002V3.602l3.535 3.534h-2.48a1.055 1.055 0 0 1-1.055-1.052z" fill="#fff"/><path d="M41.974 20.448c0-4.076-1.672-7.77-4.363-10.431a1.064 1.064 0 0 0-.18-.177 14.615 14.615 0 0 0-10.127-4.067c-7.351 0-13.456 5.437-14.51 12.502a14.799 14.799 0 0 0-.161 2.173 14.63 14.63 0 0 0 4.31 10.378c.055.069.118.13.188.183a14.617 14.617 0 0 0 10.173 4.112c1.953 0 3.853-.38 5.648-1.128a1.055 1.055 0 0 0-.812-1.948c-1.536.64-3.163.965-4.836.965-2.355 0-4.56-.652-6.446-1.784h1.586c1.655 0 3-1.347 3-3.002a3.004 3.004 0 0 0-3-3.001.889.889 0 0 1 0-1.78h.412a3.003 3.003 0 0 0 2.998-3 3.003 3.003 0 0 0-2.998-3.002h-7.747c1.35-5.48 6.305-9.558 12.195-9.558 2.321 0 4.497.634 6.364 1.738h-1.556c-1.654 0-3 1.344-3 2.998a3.004 3.004 0 0 0 3 3.001c.482 0 .888.408.888.891a.89.89 0 0 1-.888.888H31.7a3.003 3.003 0 0 0-2.998 3.002 3.003 3.003 0 0 0 2.998 3.001h7.811a12.498 12.498 0 0 1-1.545 3.687 1.055 1.055 0 1 0 1.791 1.116 14.62 14.62 0 0 0 2.076-5.729l.004-.03c.09-.66.136-1.326.136-1.998zm-19.118-.897c.49 0 .888.4.888.891a.901.901 0 0 1-.888.892h-.412a3.003 3.003 0 0 0-2.998 3 3.001 3.001 0 0 0 2.998 2.999.892.892 0 0 1 0 1.782H18.22a12.521 12.521 0 0 1-3.443-9.564h8.08zm8.845 1.74a.89.89 0 0 1 0-1.781h.412a3.002 3.002 0 0 0 2.998-2.999 3.003 3.003 0 0 0-2.998-3.001.89.89 0 0 1 0-1.779h4.227a12.524 12.524 0 0 1 3.494 9.56h-8.133zM22.63 47.056l.002.003c.218.194.473.31.768.31.287 0 .53-.11.73-.317a1.03 1.03 0 0 0 .307-.747V40.49h1.16a.925.925 0 0 0 .681-.284.94.94 0 0 0 .288-.684.976.976 0 0 0-.284-.7.932.932 0 0 0-.685-.29h-4.441a.896.896 0 0 0-.679.293.94.94 0 0 0-.278.676c0 .272.093.51.293.702a.925.925 0 0 0 .651.275h1.17v5.827c0 .293.11.544.316.75zm-10.973-8.285c-.2.21-.32.46-.32.75v6.796c0 .296.105.55.317.756.209.204.463.308.759.308.29 0 .544-.101.747-.31a1.04 1.04 0 0 0 .302-.754v-2.541h3.405v2.54c0 .294.101.548.307.754.21.21.464.311.757.311.296 0 .55-.107.753-.323.2-.206.308-.454.308-.741v-6.795c0-.3-.102-.56-.314-.772a1.026 1.026 0 0 0-.748-.313c-.295 0-.54.122-.744.334-.203.21-.32.46-.32.75v2.309h-3.404v-2.308c0-.293-.101-.55-.308-.763a.984.984 0 0 0-.741-.322c-.299 0-.55.12-.756.334zm29.1-.021c-.21-.2-.457-.314-.747-.314s-.541.108-.748.314a1.029 1.029 0 0 0-.314.75v6.652c0 .3.111.56.317.778.206.212.458.331.757.331h3.096a.908.908 0 0 0 .386-.08c.113-.051.215-.123.302-.21a.964.964 0 0 0 .212-1.077 1.029 1.029 0 0 0-.212-.3l-.004-.004a1.008 1.008 0 0 0-.696-.274h-2.02V39.5a1.01 1.01 0 0 0-.33-.75zm-7.216.718l-1.258 4.164-1.235-4.161c-.212-.667-.66-1.035-1.362-1.035-.341 0-.643.108-.906.32a1.25 1.25 0 0 0-.475.784l-1.097 6.514a.65.65 0 0 0-.027.215c0 .3.092.568.302.783.206.218.472.317.77.317.644 0 .975-.385 1.062-1.001l.607-4.21 1.279 4.365c.17.53.52.846 1.082.846.24 0 .517-.036.711-.188.191-.156.302-.425.371-.658l1.282-4.368.616 4.213c.096.615.43 1.001 1.073 1.001.293 0 .553-.099.76-.31.211-.216.3-.488.3-.79v-.006l-.023-.197-1.1-6.526a1.278 1.278 0 0 0-.481-.79 1.363 1.363 0 0 0-.885-.314c-.708 0-1.163.36-1.366 1.032z" fill="#fff"/><path d="M35.889 32.072c.2 0 .404-.058.584-.178l.018-.012a1.055 1.055 0 1 0-1.17-1.756l-.018.012a1.056 1.056 0 0 0 .586 1.934zM6.54 35.465c.582 0 1.055-.473 1.055-1.055v-.021a1.055 1.055 0 0 0-2.11 0v.02c0 .583.472 1.056 1.054 1.056z" fill="#fff"/></svg>