<svg width="54" height="54" fill="none" xmlns="http://www.w3.org/2000/svg"><path d="M13.012 27.227a2.037 2.037 0 0 0 2.015 1.843H32.87l-.484 5.398a.341.341 0 0 1-.131.156L27.537 35.9l-.56.151-.56-.15-4.709-1.272a.338.338 0 0 1-.13-.156l-.254-2.845a2.037 2.037 0 0 0-2.015-1.842h-4.025c-.529 0-1.033.22-1.384.603-.35.383-.524.905-.477 1.43l.649 7.286c.081.915.81 1.79 1.695 2.036l10.085 2.798c.755.21.989.275 1.151.275a.947.947 0 0 0 .216-.032c.034-.008.043-.01.903-.248l10.074-2.793c.772-.215 1.586-.81 1.661-1.657l1.461-16.36a1.785 1.785 0 0 0-.455-1.367 1.788 1.788 0 0 0-1.318-.576H20.39l-.333-3.726H40.83c.556 0 1.02-.424 1.07-.977l.456-4.971a1.728 1.728 0 0 0-.453-1.333 1.918 1.918 0 0 0-1.416-.608h-27.01c-.546 0-1.063.221-1.416.608-.336.367-.497.84-.453 1.333l1.403 15.721zm27.165-15.51l-.328 3.586h-20.1c-.529 0-1.033.22-1.383.603-.35.383-.525.905-.478 1.431l.371 4.15a2.037 2.037 0 0 0 2.015 1.844H39.14l-1.401 15.69a.667.667 0 0 1-.118.045L27.548 41.86l-.568.157a93.547 93.547 0 0 1-.553-.152L16.35 39.069a.351.351 0 0 1-.136-.163l-.62-6.97h3.598l.244 2.735c.082.918.815 1.791 1.704 2.032l4.717 1.273c.975.263.975.263 1.12.263.146 0 .146 0 1.121-.263l4.725-1.277c.89-.24 1.623-1.113 1.705-2.031l.513-5.714a1.876 1.876 0 0 0-.478-1.431 1.875 1.875 0 0 0-1.383-.604H15.145l-1.357-15.203h26.39z" fill="#fff"/><path d="M50.435.604A1.876 1.876 0 0 0 49.052 0H4.948C4.42 0 3.916.22 3.566.603a1.874 1.874 0 0 0-.478 1.431l4.017 45.061c.082.915.81 1.79 1.696 2.036l17.047 4.733c.325.09.724.136 1.123.136.398 0 .797-.045 1.122-.135l17.1-4.741c.885-.246 1.614-1.12 1.696-2.036l4.024-45.053a1.876 1.876 0 0 0-.478-1.431zm-5.689 46.285a.363.363 0 0 1-.128.162l-17.1 4.74c-.27.076-.823.076-1.094 0l-17.038-4.73a.356.356 0 0 1-.138-.157L5.258 2.151h43.484L44.747 46.89z" fill="#fff"/><path d="M20.116 3.658H8.176a1.076 1.076 0 0 0 0 2.15h11.94a1.076 1.076 0 0 0 0-2.15zm4.41 0h-.43a1.076 1.076 0 0 0 0 2.15h.43a1.076 1.076 0 0 0 0-2.15z" fill="#fff"/></svg>