<svg width="188" height="188" fill="none" xmlns="http://www.w3.org/2000/svg"><g clip-path="url(#clip0)"><path d="M172.327 159.88H15.673C7.03 159.88 0 152.849 0 144.207v-6.266a3.135 3.135 0 0 1 3.134-3.134H75.2c.83 0 1.63.33 2.215.918l5.348 5.348h22.474l5.348-5.348a3.126 3.126 0 0 1 2.215-.918h72.066a3.135 3.135 0 0 1 3.134 3.134v6.266c0 8.642-7.031 15.673-15.673 15.673zM6.267 141.073v3.134c0 5.185 4.22 9.407 9.406 9.407h156.654c5.185 0 9.406-4.222 9.406-9.407v-3.134h-67.635l-5.349 5.349a3.126 3.126 0 0 1-2.216.918H81.467c-.83 0-1.63-.329-2.216-.918l-5.349-5.349H6.267z" fill="#fff"/><path d="M106.533 147.34H81.467c-.83 0-1.63-.329-2.216-.918l-5.349-5.349H21.934a3.134 3.134 0 0 1-3.134-3.132v-94a3.135 3.135 0 0 1 3.134-3.134h144.132a3.135 3.135 0 0 1 3.134 3.134v94a3.134 3.134 0 0 1-3.134 3.132h-51.968l-5.349 5.349a3.126 3.126 0 0 1-2.216.918zm-23.77-6.267h22.474l5.348-5.348a3.126 3.126 0 0 1 2.215-.918h50.134V47.073H25.066v87.734H75.2c.83 0 1.63.33 2.215.918l5.349 5.348z" fill="#fff"/><path d="M106.533 147.34H81.467c-.83 0-1.63-.329-2.216-.918l-5.349-5.349H9.401a3.134 3.134 0 0 1-3.134-3.132V39.143c0-5.994 4.875-10.87 10.869-10.87h153.728c5.994 0 10.869 4.876 10.869 10.87v98.798a3.134 3.134 0 0 1-3.134 3.132h-64.501l-5.349 5.349a3.126 3.126 0 0 1-2.216.918zm-23.77-6.267h22.474l5.348-5.348a3.122 3.122 0 0 1 2.215-.918h62.667V39.143a4.61 4.61 0 0 0-4.603-4.603H17.136a4.609 4.609 0 0 0-4.603 4.603v95.664H75.2c.83 0 1.63.329 2.215.918l5.348 5.348z" fill="#fff"/><path d="M81.467 106.614H37.599a3.136 3.136 0 0 1-3.132-3.134V72.147a3.135 3.135 0 0 1 3.132-3.134h43.868a3.134 3.134 0 0 1 3.132 3.134v31.333a3.135 3.135 0 0 1-3.132 3.134zm-40.734-6.267h37.6V75.279h-37.6v25.068z" fill="#FFBCBD"/><path d="M72.067 75.28H47a3.134 3.134 0 0 1-3.134-3.133V59.613A3.135 3.135 0 0 1 47 56.48h25.067a3.135 3.135 0 0 1 3.134 3.134v12.533a3.134 3.134 0 0 1-3.134 3.132zm-21.933-6.267h18.8v-6.267h-18.8v6.267z" fill="#FFBCBD"/><path d="M72.066 90.946H47c-6.912 0-12.533-5.62-12.533-12.533a3.135 3.135 0 0 1 3.132-3.134 3.135 3.135 0 0 1 3.134 3.134A6.273 6.273 0 0 0 47 84.68h25.066a6.273 6.273 0 0 0 6.267-6.267 3.134 3.134 0 0 1 6.267 0c0 6.912-5.622 12.533-12.534 12.533zm62.667-28.2H97.134a3.134 3.134 0 0 1 0-6.267h37.599a3.134 3.134 0 0 1 0 6.267z" fill="#FFBCBD"/><path d="M150.4 62.746h-3.134a3.133 3.133 0 0 1 0-6.267h3.134a3.134 3.134 0 0 1 0 6.267zm0 15.667h-37.6a3.134 3.134 0 0 1 0-6.266h37.6a3.135 3.135 0 0 1 3.133 3.132 3.135 3.135 0 0 1-3.133 3.134zm-50.133 0h-3.133A3.135 3.135 0 0 1 94 75.28a3.135 3.135 0 0 1 3.134-3.132h3.133a3.136 3.136 0 0 1 3.134 3.132 3.136 3.136 0 0 1-3.134 3.134zm34.466 15.667H97.134a3.134 3.134 0 0 1 0-6.267h37.599a3.133 3.133 0 0 1 0 6.267z" fill="#fff"/><path d="M150.4 94.08h-3.134a3.134 3.134 0 0 1 0-6.266h3.134a3.134 3.134 0 0 1 0 6.266zm-15.667 31.333H97.134A3.135 3.135 0 0 1 94 122.279a3.135 3.135 0 0 1 3.134-3.132h37.599a3.134 3.134 0 0 1 0 6.266z" fill="#FFBCBD"/><path d="M150.4 125.413h-3.134a3.134 3.134 0 0 1 0-6.266h3.134a3.134 3.134 0 0 1 3.133 3.132 3.135 3.135 0 0 1-3.133 3.134z" fill="#fff"/><path d="M68.934 125.413H37.599a3.135 3.135 0 0 1-3.132-3.134 3.135 3.135 0 0 1 3.132-3.132h31.335a3.134 3.134 0 0 1 0 6.266z" fill="#FFBCBD"/><path d="M84.6 125.413h-3.133a3.135 3.135 0 0 1-3.134-3.134 3.135 3.135 0 0 1 3.134-3.132H84.6a3.135 3.135 0 0 1 3.134 3.132 3.135 3.135 0 0 1-3.134 3.134zm65.8-15.667h-37.6a3.133 3.133 0 0 1 0-6.267h37.6a3.134 3.134 0 0 1 0 6.267zm-50.133 0h-3.133a3.134 3.134 0 0 1 0-6.267h3.133a3.136 3.136 0 0 1 3.134 3.134 3.135 3.135 0 0 1-3.134 3.133z" fill="#fff"/></g><defs><clipPath id="clip0"><path fill="#fff" d="M0 0h188v188H0z"/></clipPath></defs></svg>