<svg width="54" height="54" fill="none" xmlns="http://www.w3.org/2000/svg"><path d="M49.645 13.935h-4.9C42.782 5.95 35.582 0 27 0S11.217 5.95 9.256 13.935H4.355A4.36 4.36 0 0 0 0 18.29v26.13a4.36 4.36 0 0 0 4.355 4.354h11.322v3.484h-3.483V54h29.612v-1.742h-3.483v-3.484h11.322A4.36 4.36 0 0 0 54 44.42V18.29a4.36 4.36 0 0 0-4.355-4.354zM27 1.742c9.125 0 16.548 7.423 16.548 16.548 0 9.126-7.423 16.549-16.548 16.549-9.125 0-16.548-7.423-16.548-16.549 0-9.125 7.423-16.548 16.548-16.548zM4.355 15.677h4.564a18.2 18.2 0 0 0-.21 2.613c0 10.085 8.205 18.29 18.291 18.29s18.29-8.205 18.29-18.29c0-.889-.085-1.756-.209-2.613h4.564a2.616 2.616 0 0 1 2.613 2.613v23.516H1.742V18.29a2.616 2.616 0 0 1 2.613-2.613zM36.58 52.258H17.419v-3.484h19.162v3.484zm13.064-5.226H4.355a2.616 2.616 0 0 1-2.613-2.613v-.87h50.516v.87a2.616 2.616 0 0 1-2.613 2.613z" fill="#fff"/><path d="M32.77 25.577l9.56-7.648-9.56-7.648-1.088 1.36 7.86 6.288-7.86 6.288 1.088 1.36zm-10.452-1.36l-7.86-6.288 7.86-6.287-1.088-1.36-9.56 7.647 9.56 7.648 1.088-1.36zm.774 2.503l6.166-18.142 1.65.56-6.167 18.143-1.649-.56zM3.484 38.323h8.71v1.742h-8.71v-1.742zm0-3.484h8.71v1.742h-8.71v-1.742zm0-3.484h8.71v1.742h-8.71v-1.742zm38.323 6.968h8.71v1.742h-8.71v-1.742zm0-3.484h8.71v1.742h-8.71v-1.742zm0-3.484h8.71v1.742h-8.71v-1.742z" fill="#fff"/></svg>