<svg width="54" height="54" fill="none" xmlns="http://www.w3.org/2000/svg"><path d="M53.1 19.8h-9.9v-8.1l-.002-.027a1.03 1.03 0 0 0-.015-.142v-.007a.902.902 0 0 0-.032-.116l-.008-.02a.873.873 0 0 0-.047-.107l-.001-.003a.896.896 0 0 0-.066-.103l-.012-.017a.902.902 0 0 0-.084-.097L32.136.264a.904.904 0 0 0-.21-.156l-.023-.011a.905.905 0 0 0-.214-.076l-.044-.008a.87.87 0 0 0-.126-.011L31.5 0H.9a.9.9 0 0 0-.9.9v52.2a.9.9 0 0 0 .9.9h41.4a.9.9 0 0 0 .9-.9v-9.9h9.9a.9.9 0 0 0 .9-.9V20.7a.9.9 0 0 0-.9-.9zM32.4 3.073l7.727 7.727H32.4V3.073zm9 49.127H1.8V1.8h28.8v9.9a.9.9 0 0 0 .9.9h9.9v7.2h-36a.9.9 0 0 0-.9.9v21.6a.9.9 0 0 0 .9.9h36v9zm10.8-10.8H6.3V21.6h45.9v19.8z" fill="#fff"/><path d="M12.6 25.2c1.489 0 2.7 1.212 2.7 2.7a.9.9 0 0 0 1.8 0c0-2.48-2.019-4.5-4.5-4.5a4.505 4.505 0 0 0-4.5 4.5c0 2.482 2.019 4.5 4.5 4.5 1.489 0 2.7 1.212 2.7 2.7 0 1.489-1.211 2.7-2.7 2.7a2.703 2.703 0 0 1-2.7-2.7.9.9 0 0 0-1.8 0c0 2.481 2.019 4.5 4.5 4.5 2.482 0 4.5-2.018 4.5-4.5 0-2.48-2.019-4.5-4.5-4.5a2.703 2.703 0 0 1-2.7-2.7c0-1.488 1.212-2.7 2.7-2.7zm22.5 0c1.489 0 2.7 1.212 2.7 2.7a.9.9 0 0 0 1.8 0c0-2.48-2.019-4.5-4.5-4.5a4.505 4.505 0 0 0-4.5 4.5c0 2.482 2.019 4.5 4.5 4.5 1.489 0 2.7 1.212 2.7 2.7 0 1.489-1.211 2.7-2.7 2.7a2.703 2.703 0 0 1-2.7-2.7.9.9 0 0 0-1.8 0c0 2.481 2.019 4.5 4.5 4.5s4.5-2.018 4.5-4.5c0-2.48-2.019-4.5-4.5-4.5a2.703 2.703 0 0 1-2.7-2.7c0-1.488 1.212-2.7 2.7-2.7zm10.8 7.2c1.488 0 2.7 1.212 2.7 2.7 0 1.489-1.212 2.7-2.7 2.7a2.703 2.703 0 0 1-2.7-2.7.9.9 0 1 0-1.8 0c0 2.481 2.019 4.5 4.5 4.5s4.5-2.019 4.5-4.5-2.019-4.5-4.5-4.5a2.703 2.703 0 0 1-2.7-2.7c0-1.488 1.211-2.7 2.7-2.7s2.7 1.212 2.7 2.7a.9.9 0 1 0 1.8 0c0-2.481-2.019-4.5-4.5-4.5a4.505 4.505 0 0 0-4.5 4.5c0 2.482 2.019 4.5 4.5 4.5zm-21.657-8.416a.893.893 0 0 0-.868-.583.9.9 0 0 0-.835.63l-4.5 14.4a.9.9 0 0 0 1.72.538l1.49-4.77h4.9l1.806 4.817a.902.902 0 0 0 1.687-.633l-5.4-14.4zM21.812 32.4l1.665-5.33 1.999 5.33h-3.664z" fill="#fff"/></svg>