<svg width="54" height="54" fill="none" xmlns="http://www.w3.org/2000/svg"><g clip-path="url(#clip0)" fill="#fff"><path d="M24.574 33.782h-2.785a.791.791 0 0 0 0 1.583h2.785a.791.791 0 1 0 0-1.583zm-.15 5.069a.79.79 0 1 0 0-1.582H21.79a.791.791 0 0 0 0 1.582h2.635zM4.767 2.74a2.325 2.325 0 0 0-2.322 2.32 2.324 2.324 0 0 0 2.322 2.322A2.324 2.324 0 0 0 7.09 5.061 2.325 2.325 0 0 0 4.767 2.74zm0 3.06a.74.74 0 0 1 0-1.478.74.74 0 0 1 0 1.479zm5.912-3.06a2.325 2.325 0 0 0-2.322 2.32 2.325 2.325 0 0 0 2.322 2.322A2.324 2.324 0 0 0 13 5.061a2.325 2.325 0 0 0-2.322-2.322zm0 3.06a.74.74 0 1 1 .74-.74.74.74 0 0 1-.74.74zm5.911-3.06a2.325 2.325 0 0 0-2.32 2.32 2.324 2.324 0 0 0 2.321 2.322 2.325 2.325 0 0 0 2.323-2.322 2.325 2.325 0 0 0-2.324-2.32zm0 3.06a.74.74 0 0 1 0-1.478.74.74 0 0 1 0 1.479zm-.249 20.917H7.488a2.322 2.322 0 0 0-2.32 2.32v7.862c0 1.28 1.042 2.32 2.32 2.32h8.853c1.279 0 2.32-1.04 2.32-2.32v-7.862a2.323 2.323 0 0 0-2.32-2.32zm-.48 1.583l-3.947 3.492L7.97 28.3h7.891zm-9.11 8.062v-7.026l3.97 3.513-3.97 3.513zm.948 1.274l4.216-3.73 4.215 3.73H7.7zm9.379-1.274l-3.97-3.513 3.97-3.513v7.026zm8.238-9.272h-3.527a.791.791 0 0 0 0 1.582h3.527a.79.79 0 1 0 0-1.582zm15.163 1.582h2.188a.79.79 0 1 0 0-1.582H40.48a.791.791 0 0 0 0 1.582zm-14.372 2.695a.791.791 0 0 0-.791-.791h-3.527a.791.791 0 0 0 0 1.582h3.527a.791.791 0 0 0 .79-.79zm-3.982-15.363h2.3a.79.79 0 1 0 0-1.582h-2.3a.79.79 0 1 0 0 1.582zm19.695-.791a.79.79 0 0 0-.791-.791h-14.03a.79.79 0 1 0 0 1.582h14.03a.791.791 0 0 0 .791-.791zM33.767 20.1h5.13a.791.791 0 1 0 0-1.583h-5.13a.791.791 0 0 0 0 1.583zm-4.283-1.583a.791.791 0 0 0 0 1.583h1.6a.791.791 0 1 0 0-1.583h-1.6zm-1.782.792a.791.791 0 0 0-.79-.792h-4.787a.791.791 0 1 0 0 1.583h4.786a.791.791 0 0 0 .791-.791zM7.16 16.512v-1.117c0-.379.139-.748.481-.942.128-.072.264-.106.404-.12a.78.78 0 0 0 .714-.771v-.038a.773.773 0 0 0-.774-.772h-.043c-.95.03-2.365.759-2.365 2.643v.695l-.755.508c-.37.248-.557.698-.454 1.15.062.277.24.515.475.673l.734.493v.695c0 1.884 1.414 2.613 2.365 2.644h.026a.791.791 0 0 0 .025-1.582c-.002 0-.22-.02-.42-.14-.178-.105-.414-.316-.414-.922v-1.117a.79.79 0 0 0-.35-.657l-.496-.333.496-.333a.793.793 0 0 0 .35-.657z"/><path d="M9.41 20.447a.8.8 0 0 1-.56-.231.8.8 0 0 1-.233-.56.776.776 0 0 1 .232-.56.794.794 0 0 1 1.352.56.796.796 0 0 1-.232.56.798.798 0 0 1-.56.23zm10.187-3.849l-.755-.508v-.695c0-1.884-1.414-2.614-2.365-2.643h-.044a.773.773 0 0 0-.773.772v.038c0 .404.312.73.713.77.14.015.277.048.404.121.343.194.482.563.482.942v1.117c0 .263.131.51.35.657l.496.333-.496.333a.792.792 0 0 0-.35.657v1.117c0 .606-.235.817-.413.922-.2.12-.418.14-.42.14a.79.79 0 0 0 .025 1.582h.026c.95-.03 2.365-.76 2.365-2.644v-.695l.734-.494c.235-.158.413-.395.475-.672a1.088 1.088 0 0 0-.454-1.15zm-6.817 2.619a.808.808 0 0 0-.503-.337.768.768 0 0 0-.458.046.827.827 0 0 0-.355.29.81.81 0 0 0 .098 1 .707.707 0 0 0 .257.17.79.79 0 0 0 .417.046.844.844 0 0 0 .214-.058c.333-.143.513-.522.447-.872a.769.769 0 0 0-.118-.285z"/><path d="M15.488 19.22a.806.806 0 0 0-.653-.356.798.798 0 0 0-.732.489c-.12.29-.052.64.171.863a.8.8 0 0 0 .56.23.8.8 0 0 0 .56-.23.783.783 0 0 0 .094-.997z"/><path d="M17.506 46.31H3.163c-.872 0-1.58-.709-1.58-1.58V9.78h44.623v6.934a.791.791 0 1 0 1.582 0V3.268A3.167 3.167 0 0 0 44.625.105H3.163A3.167 3.167 0 0 0 0 3.268V44.73a3.167 3.167 0 0 0 3.163 3.163h14.343a.791.791 0 1 0 0-1.583zM1.582 3.268c0-.872.71-1.58 1.58-1.58h41.463c.871 0 1.58.708 1.58 1.58v4.929H1.582V3.268z"/><path d="M52.57 42.46h-5.762l4.163-4.163a1.432 1.432 0 0 0 0-2.023l-3.183-3.183V21.655a.791.791 0 1 0-1.582 0v9.853l-1.42-1.42a1.433 1.433 0 0 0-2.024 0l-4.163 4.163V28.49c0-.79-.642-1.431-1.43-1.431H28.42c-.789 0-1.43.642-1.43 1.43V46.31h-4.526a.791.791 0 0 0 0 1.582h4.525v.158c0 1.584.396 3.047 1.497 4.233a5.62 5.62 0 0 0 4.094 1.787h12.132l.015-.001h7.842c.79 0 1.431-.641 1.431-1.43v-8.748c0-.789-.641-1.43-1.43-1.43zM28.572 28.641h8.445v6.884h-8.445V28.64zm0 8.498h7.14l-6.334 6.333c-.236.166-.457.35-.665.55h-.141v-6.883zm6.883 15.349H32.58a4.012 4.012 0 0 1-4.008-4.008v-.43a4.012 4.012 0 0 1 4.008-4.007h2.875v8.445zM33.168 42.46l-.27-.27 4.867-4.867 5.137 5.137h-9.734zM43.92 52.488h-6.883v-8.445h6.883v8.445zm-5.015-16.306l4.868-4.868 5.971 5.972-4.867 4.867-5.972-5.971zm13.512 16.306h-6.883v-8.445h6.883v8.445z"/><path d="M29.465 48.265c0 1.352 1.1 2.452 2.45 2.452 1.352 0 2.452-1.1 2.452-2.452 0-1.352-1.1-2.451-2.451-2.451a2.454 2.454 0 0 0-2.451 2.451zm3.32 0a.87.87 0 1 1-1.737-.001.87.87 0 0 1 1.737.001z"/></g><defs><clipPath id="clip0"><path fill="#fff" d="M0 0h54v54H0z"/></clipPath></defs></svg>